# Blender 4.0.2
# www.blender.org
mtllib ladder.mtl
o ladder
v -0.241189 0.000000 -0.026211 1.0000 1.0000 1.0000
v -0.241189 0.000000 0.026208 1.0000 1.0000 1.0000
v -0.268754 0.277778 -0.026211 1.0000 1.0000 1.0000
v -0.268754 0.000000 -0.026211 1.0000 1.0000 1.0000
v -0.268754 0.277778 0.026208 1.0000 1.0000 1.0000
v -0.268754 0.000000 0.026208 1.0000 1.0000 1.0000
v -0.241189 0.257202 -0.026211 1.0000 1.0000 1.0000
v -0.241189 0.257202 0.026208 1.0000 1.0000 1.0000
v -0.241189 0.277778 0.026208 1.0000 1.0000 1.0000
v -0.241189 0.277778 -0.026211 1.0000 1.0000 1.0000
v -0.241189 0.555556 -0.026211 1.0000 1.0000 1.0000
v 0.241214 0.000000 0.026244 1.0000 1.0000 1.0000
v 0.241167 0.000000 -0.026175 1.0000 1.0000 1.0000
v 0.268779 0.277778 0.026154 1.0000 1.0000 1.0000
v 0.268779 0.000000 0.026154 1.0000 1.0000 1.0000
v 0.268732 0.277778 -0.026265 1.0000 1.0000 1.0000
v 0.268732 0.000000 -0.026265 1.0000 1.0000 1.0000
v 0.241214 0.257202 0.026244 1.0000 1.0000 1.0000
v 0.241167 0.257202 -0.026175 1.0000 1.0000 1.0000
v -0.241189 0.534979 -0.026211 1.0000 1.0000 1.0000
v -0.241189 0.534979 0.026208 1.0000 1.0000 1.0000
v 0.241191 0.555556 0.026208 1.0000 1.0000 1.0000
v 0.241214 0.277778 0.026244 1.0000 1.0000 1.0000
v 0.241167 0.555556 -0.026175 1.0000 1.0000 1.0000
v 0.241167 0.277778 -0.026175 1.0000 1.0000 1.0000
v 0.268732 0.555556 -0.026265 1.0000 1.0000 1.0000
v 0.241214 0.534979 0.026244 1.0000 1.0000 1.0000
v 0.241167 0.534979 -0.026175 1.0000 1.0000 1.0000
v -0.241189 0.833333 -0.026211 1.0000 1.0000 1.0000
v -0.241189 0.833333 0.026208 1.0000 1.0000 1.0000
v -0.241189 0.555556 0.026208 1.0000 1.0000 1.0000
v -0.268754 0.833333 -0.026211 1.0000 1.0000 1.0000
v -0.268754 0.555556 -0.026211 1.0000 1.0000 1.0000
v -0.268754 0.833333 0.026208 1.0000 1.0000 1.0000
v -0.268754 0.555556 0.026208 1.0000 1.0000 1.0000
v -0.241189 0.812757 -0.026211 1.0000 1.0000 1.0000
v -0.241189 0.812757 0.026208 1.0000 1.0000 1.0000
v -0.241189 1.111111 0.026208 1.0000 1.0000 1.0000
v -0.241189 1.111111 -0.026211 1.0000 1.0000 1.0000
v 0.268779 0.833333 0.026154 1.0000 1.0000 1.0000
v 0.268779 0.555556 0.026154 1.0000 1.0000 1.0000
v 0.241214 0.812757 0.026244 1.0000 1.0000 1.0000
v 0.241167 0.812757 -0.026175 1.0000 1.0000 1.0000
v -0.268754 1.111111 -0.026211 1.0000 1.0000 1.0000
v -0.268754 1.111111 0.026208 1.0000 1.0000 1.0000
v -0.241189 1.090535 -0.026211 1.0000 1.0000 1.0000
v -0.241189 1.090535 0.026208 1.0000 1.0000 1.0000
v 0.241214 0.833333 0.026244 1.0000 1.0000 1.0000
v 0.241167 1.111111 -0.026175 1.0000 1.0000 1.0000
v 0.241167 0.833333 -0.026175 1.0000 1.0000 1.0000
v 0.268732 0.833333 -0.026265 1.0000 1.0000 1.0000
v 0.241214 1.090535 0.026244 1.0000 1.0000 1.0000
v 0.241167 1.090535 -0.026175 1.0000 1.0000 1.0000
v -0.241189 1.388889 -0.026211 1.0000 1.0000 1.0000
v -0.268754 1.388889 -0.026211 1.0000 1.0000 1.0000
v -0.268754 1.388889 0.026208 1.0000 1.0000 1.0000
v -0.241189 1.368313 -0.026211 1.0000 1.0000 1.0000
v -0.241189 1.368313 0.026208 1.0000 1.0000 1.0000
v -0.241189 1.388889 0.026208 1.0000 1.0000 1.0000
v -0.241189 1.666667 0.026208 1.0000 1.0000 1.0000
v 0.241214 1.111111 0.026244 1.0000 1.0000 1.0000
v 0.241167 1.388889 -0.026175 1.0000 1.0000 1.0000
v 0.268779 1.388889 0.026154 1.0000 1.0000 1.0000
v 0.268779 1.111111 0.026154 1.0000 1.0000 1.0000
v 0.268732 1.111111 -0.026265 1.0000 1.0000 1.0000
v 0.241214 1.368313 0.026244 1.0000 1.0000 1.0000
v 0.241167 1.368313 -0.026175 1.0000 1.0000 1.0000
v -0.268754 1.666667 0.026208 1.0000 1.0000 1.0000
v -0.241189 1.646091 -0.026211 1.0000 1.0000 1.0000
v -0.241189 1.646091 0.026208 1.0000 1.0000 1.0000
v 0.241214 1.388889 0.026244 1.0000 1.0000 1.0000
v 0.241167 1.666667 -0.026175 1.0000 1.0000 1.0000
v 0.268732 1.388889 -0.026265 1.0000 1.0000 1.0000
v 0.241214 1.646091 0.026244 1.0000 1.0000 1.0000
v 0.241167 1.646091 -0.026175 1.0000 1.0000 1.0000
v -0.241189 1.944444 -0.026211 1.0000 1.0000 1.0000
v -0.241189 1.666667 -0.026211 1.0000 1.0000 1.0000
v -0.241189 1.944444 0.026208 1.0000 1.0000 1.0000
v -0.268754 1.666667 -0.026211 1.0000 1.0000 1.0000
v -0.241189 1.923868 -0.026211 1.0000 1.0000 1.0000
v -0.241189 1.923868 0.026208 1.0000 1.0000 1.0000
v -0.241189 2.222222 -0.026211 1.0000 1.0000 1.0000
v 0.241214 1.666667 0.026244 1.0000 1.0000 1.0000
v 0.241167 1.944444 -0.026175 1.0000 1.0000 1.0000
v 0.268779 1.666667 0.026154 1.0000 1.0000 1.0000
v 0.268732 1.944444 -0.026265 1.0000 1.0000 1.0000
v 0.268732 1.666667 -0.026265 1.0000 1.0000 1.0000
v 0.241214 1.923868 0.026244 1.0000 1.0000 1.0000
v 0.241167 1.923868 -0.026175 1.0000 1.0000 1.0000
v -0.268754 2.222222 -0.026211 1.0000 1.0000 1.0000
v -0.268754 1.944444 -0.026211 1.0000 1.0000 1.0000
v -0.268754 1.944444 0.026208 1.0000 1.0000 1.0000
v -0.241189 2.201646 -0.026211 1.0000 1.0000 1.0000
v -0.241189 2.201646 0.026208 1.0000 1.0000 1.0000
v 0.241191 2.222222 0.026208 1.0000 1.0000 1.0000
v 0.241214 1.944444 0.026244 1.0000 1.0000 1.0000
v 0.268779 2.222222 0.026154 1.0000 1.0000 1.0000
v 0.268779 1.944444 0.026154 1.0000 1.0000 1.0000
v 0.268732 2.222222 -0.026265 1.0000 1.0000 1.0000
v 0.241214 2.201646 0.026244 1.0000 1.0000 1.0000
v 0.241167 2.201646 -0.026175 1.0000 1.0000 1.0000
v -0.241189 2.500000 -0.026211 1.0000 1.0000 1.0000
v -0.241189 2.500000 0.026208 1.0000 1.0000 1.0000
v -0.241189 2.222222 0.026208 1.0000 1.0000 1.0000
v -0.268754 2.500000 -0.026211 1.0000 1.0000 1.0000
v -0.268754 2.222222 0.026208 1.0000 1.0000 1.0000
v -0.241189 2.479424 -0.026211 1.0000 1.0000 1.0000
v -0.241189 2.479424 0.026208 1.0000 1.0000 1.0000
v 0.241191 2.500000 0.026208 1.0000 1.0000 1.0000
v -0.241189 2.777778 0.026208 1.0000 1.0000 1.0000
v 0.241167 2.500000 -0.026175 1.0000 1.0000 1.0000
v 0.241167 2.222222 -0.026175 1.0000 1.0000 1.0000
v 0.268732 2.500000 -0.026265 1.0000 1.0000 1.0000
v 0.241214 2.479424 0.026244 1.0000 1.0000 1.0000
v 0.241167 2.479424 -0.026175 1.0000 1.0000 1.0000
v -0.268754 2.777778 -0.026211 1.0000 1.0000 1.0000
v -0.268754 2.500000 0.026208 1.0000 1.0000 1.0000
v -0.241189 2.757202 -0.026211 1.0000 1.0000 1.0000
v -0.241189 2.757202 0.026208 1.0000 1.0000 1.0000
v 0.268779 2.500000 0.026154 1.0000 1.0000 1.0000
v 0.268732 2.777778 -0.026265 1.0000 1.0000 1.0000
v 0.241214 2.757202 0.026244 1.0000 1.0000 1.0000
v 0.241167 2.757202 -0.026175 1.0000 1.0000 1.0000
v -0.241189 2.777778 -0.026211 1.0000 1.0000 1.0000
v -0.241189 3.055556 0.026208 1.0000 1.0000 1.0000
v -0.268754 3.055556 -0.026211 1.0000 1.0000 1.0000
v -0.268754 3.055556 0.026208 1.0000 1.0000 1.0000
v -0.268754 2.777778 0.026208 1.0000 1.0000 1.0000
v -0.241189 3.034980 -0.026211 1.0000 1.0000 1.0000
v -0.241189 3.034980 0.026208 1.0000 1.0000 1.0000
v -0.241189 3.055556 -0.026211 1.0000 1.0000 1.0000
v 0.241214 2.777778 0.026244 1.0000 1.0000 1.0000
v 0.241167 3.055556 -0.026175 1.0000 1.0000 1.0000
v 0.241167 2.777778 -0.026175 1.0000 1.0000 1.0000
v 0.268779 2.777778 0.026154 1.0000 1.0000 1.0000
v 0.241214 3.034980 0.026244 1.0000 1.0000 1.0000
v 0.241167 3.034980 -0.026175 1.0000 1.0000 1.0000
v -0.241189 3.312757 -0.026211 1.0000 1.0000 1.0000
v -0.241189 3.312757 0.026208 1.0000 1.0000 1.0000
v 0.241214 3.055556 0.026244 1.0000 1.0000 1.0000
v 0.268779 3.333333 0.026154 1.0000 1.0000 1.0000
v 0.268779 3.055556 0.026154 1.0000 1.0000 1.0000
v 0.268732 3.055556 -0.026265 1.0000 1.0000 1.0000
v 0.241214 3.312757 0.026244 1.0000 1.0000 1.0000
v 0.241167 3.312757 -0.026175 1.0000 1.0000 1.0000
v -0.241189 3.333333 -0.026211 1.0000 1.0000 1.0000
v -0.241189 3.611111 0.026208 1.0000 1.0000 1.0000
v -0.241189 3.333333 0.026208 1.0000 1.0000 1.0000
v -0.268754 3.333333 -0.026211 1.0000 1.0000 1.0000
v -0.268754 3.611111 0.026208 1.0000 1.0000 1.0000
v -0.268754 3.333333 0.026208 1.0000 1.0000 1.0000
v -0.241189 3.590535 -0.026211 1.0000 1.0000 1.0000
v -0.241189 3.590535 0.026208 1.0000 1.0000 1.0000
v 0.241191 3.611111 0.026208 1.0000 1.0000 1.0000
v -0.241189 3.888889 0.026208 1.0000 1.0000 1.0000
v -0.241189 3.611111 -0.026211 1.0000 1.0000 1.0000
v -0.241189 3.888889 -0.026211 1.0000 1.0000 1.0000
v 0.241214 3.333333 0.026244 1.0000 1.0000 1.0000
v 0.241167 3.611111 -0.026175 1.0000 1.0000 1.0000
v 0.241167 3.333333 -0.026175 1.0000 1.0000 1.0000
v 0.268779 3.611111 0.026154 1.0000 1.0000 1.0000
v 0.268732 3.611111 -0.026265 1.0000 1.0000 1.0000
v 0.268732 3.333333 -0.026265 1.0000 1.0000 1.0000
v 0.241214 3.590535 0.026244 1.0000 1.0000 1.0000
v 0.241167 3.590535 -0.026175 1.0000 1.0000 1.0000
v -0.268754 3.888889 -0.026211 1.0000 1.0000 1.0000
v -0.268754 3.611111 -0.026211 1.0000 1.0000 1.0000
v -0.268754 3.888889 0.026208 1.0000 1.0000 1.0000
v -0.241189 3.868313 -0.026211 1.0000 1.0000 1.0000
v -0.241189 3.868313 0.026208 1.0000 1.0000 1.0000
v 0.268732 3.888889 -0.026265 1.0000 1.0000 1.0000
v 0.241214 3.868313 0.026244 1.0000 1.0000 1.0000
v 0.241167 3.868313 -0.026175 1.0000 1.0000 1.0000
v -0.268754 4.166667 -0.026211 1.0000 1.0000 1.0000
v -0.268754 4.166667 0.026208 1.0000 1.0000 1.0000
v -0.241189 4.146091 -0.026211 1.0000 1.0000 1.0000
v -0.241189 4.146091 0.026208 1.0000 1.0000 1.0000
v -0.241189 4.166667 0.026208 1.0000 1.0000 1.0000
v 0.241191 4.166667 0.026208 1.0000 1.0000 1.0000
v -0.241189 4.166667 -0.026211 1.0000 1.0000 1.0000
v 0.241214 3.888889 0.026244 1.0000 1.0000 1.0000
v 0.241167 4.166667 -0.026175 1.0000 1.0000 1.0000
v 0.241167 3.888889 -0.026175 1.0000 1.0000 1.0000
v 0.268779 4.166667 0.026154 1.0000 1.0000 1.0000
v 0.268779 3.888889 0.026154 1.0000 1.0000 1.0000
v 0.268732 4.166667 -0.026265 1.0000 1.0000 1.0000
v 0.241214 4.146091 0.026244 1.0000 1.0000 1.0000
v 0.241167 4.146091 -0.026175 1.0000 1.0000 1.0000
v -0.268754 4.444445 -0.026211 1.0000 1.0000 1.0000
v -0.268754 4.444445 0.026208 1.0000 1.0000 1.0000
v -0.241189 4.423868 -0.026211 1.0000 1.0000 1.0000
v -0.241189 4.423868 0.026208 1.0000 1.0000 1.0000
v 0.241191 4.444445 0.026208 1.0000 1.0000 1.0000
v 0.241167 4.444445 -0.026175 1.0000 1.0000 1.0000
v 0.268732 4.444445 -0.026265 1.0000 1.0000 1.0000
v 0.241214 4.423868 0.026244 1.0000 1.0000 1.0000
v 0.241167 4.423868 -0.026175 1.0000 1.0000 1.0000
v -0.241189 4.444445 0.026208 1.0000 1.0000 1.0000
v -0.241189 4.444445 -0.026211 1.0000 1.0000 1.0000
v 0.268779 4.444445 0.026154 1.0000 1.0000 1.0000
v -0.268754 4.722222 -0.026211 1.0000 1.0000 1.0000
v -0.268754 4.722222 0.026208 1.0000 1.0000 1.0000
v -0.241189 4.701646 -0.026211 1.0000 1.0000 1.0000
v -0.241189 4.701646 0.026208 1.0000 1.0000 1.0000
v 0.241214 4.701646 0.026244 1.0000 1.0000 1.0000
v 0.241167 4.701646 -0.026175 1.0000 1.0000 1.0000
v -0.241189 4.722222 0.026208 1.0000 1.0000 1.0000
v 0.241191 4.722222 0.026208 1.0000 1.0000 1.0000
v -0.241189 5.000000 0.026208 1.0000 1.0000 1.0000
v -0.241189 4.722222 -0.026211 1.0000 1.0000 1.0000
v -0.241189 5.000000 -0.026211 1.0000 1.0000 1.0000
v 0.241167 4.722222 -0.026175 1.0000 1.0000 1.0000
v 0.268779 4.722222 0.026154 1.0000 1.0000 1.0000
v 0.268732 4.722222 -0.026265 1.0000 1.0000 1.0000
v -0.268754 5.000000 -0.026211 1.0000 1.0000 1.0000
v -0.268754 5.000000 0.026208 1.0000 1.0000 1.0000
v -0.241189 4.979424 -0.026211 1.0000 1.0000 1.0000
v -0.241189 4.979424 0.026208 1.0000 1.0000 1.0000
v 0.241191 5.000000 0.026208 1.0000 1.0000 1.0000
v 0.241167 5.000000 -0.026175 1.0000 1.0000 1.0000
v 0.268779 5.000000 0.026154 1.0000 1.0000 1.0000
v 0.268732 5.000000 -0.026265 1.0000 1.0000 1.0000
v 0.241214 4.979424 0.026244 1.0000 1.0000 1.0000
v 0.241167 4.979424 -0.026175 1.0000 1.0000 1.0000
vn -1.0000 -0.0000 -0.0000
vn -0.0000 -0.0000 1.0000
vn -0.0001 -0.0000 1.0000
vn -0.0000 -0.0000 -1.0000
vn 1.0000 -0.0000 -0.0000
vn 0.0001 -0.0000 -1.0000
vn -0.0000 1.0000 -0.0000
vn -0.0000 -1.0000 -0.0000
vn -0.0033 -0.0000 -1.0000
vn 1.0000 -0.0000 -0.0009
vn 0.0033 -0.0000 1.0000
vn -1.0000 -0.0000 0.0009
vn -0.0000 0.0009 1.0000
vn 0.0020 0.0017 1.0000
vn -1.0000 0.0001 0.0004
vn 0.0020 -0.0001 1.0000
vt 0.625000 0.000000
vt 0.375000 0.250000
vt 0.375000 0.000000
vt 0.500000 0.750000
vt 0.625000 1.000000
vt 0.375000 1.000000
vt 0.625000 0.750000
vt 0.625000 0.250000
vt 0.625000 0.500000
vt 0.500000 0.500000
vt 0.375000 0.750000
vt 0.375000 0.500000
s 0
usemtl Material_f3d
f 35/1/1 3/2/1 5/3/1
f 8/4/2 5/5/2 6/6/2
f 5/1/1 4/2/1 6/3/1
f 9/7/3 8/4/3 18/4/3 23/7/3
f 3/8/4 10/9/4 7/10/4
f 7/10/5 2/11/5 1/12/5
f 21/4/2 35/5/2 5/6/2
f 6/6/2 2/11/2 8/4/2
f 8/4/2 9/7/2 5/5/2
f 5/1/1 3/8/1 4/2/1
f 7/10/6 10/9/6 25/9/6 19/10/6
f 1/12/4 4/2/4 7/10/4
f 4/2/4 3/8/4 7/10/4
f 7/10/5 8/4/5 2/11/5
f 10/9/7 9/7/7 23/7/7 25/9/7
f 8/4/8 7/10/8 19/10/8 18/4/8
f 33/8/4 11/9/4 20/10/4
f 19/4/9 16/5/9 17/6/9
f 16/1/10 15/2/10 17/3/10
f 14/8/11 23/9/11 18/10/11
f 18/10/12 13/11/12 12/12/12
f 31/7/13 21/4/13 27/4/13 22/7/13
f 17/6/9 13/11/9 19/4/9
f 19/4/9 25/7/9 16/5/9
f 16/1/10 14/8/10 15/2/10
f 12/12/11 15/2/11 18/10/11
f 15/2/11 14/8/11 18/10/11
f 18/10/12 19/4/12 13/11/12
f 20/10/5 9/11/5 10/12/5
f 5/6/2 9/11/2 21/4/2
f 21/4/2 31/7/2 35/5/2
f 35/1/1 33/8/1 3/2/1
f 20/10/6 11/9/6 24/9/6 28/10/6
f 10/12/4 3/2/4 20/10/4
f 3/2/4 33/8/4 20/10/4
f 20/10/5 21/4/5 9/11/5
f 11/9/7 31/7/7 22/7/7 24/9/7
f 21/4/8 20/10/8 28/10/8 27/4/8
f 28/4/9 26/5/9 16/6/9
f 26/1/10 14/2/10 16/3/10
f 41/8/14 22/9/14 27/10/14
f 27/10/12 25/11/12 23/12/12
f 16/6/9 25/11/9 28/4/9
f 28/4/9 24/7/9 26/5/9
f 26/1/10 41/8/10 14/2/10
f 23/12/11 14/2/11 27/10/11
f 14/2/11 41/8/11 27/10/11
f 27/10/12 28/4/12 25/11/12
f 45/1/1 32/2/1 34/3/1
f 37/4/2 34/5/2 35/6/2
f 34/1/1 33/2/1 35/3/1
f 30/7/3 37/4/3 42/4/3 48/7/3
f 32/8/4 29/9/4 36/10/4
f 36/10/5 31/11/5 11/12/5
f 47/4/2 45/5/2 34/6/2
f 35/6/2 31/11/2 37/4/2
f 37/4/2 30/7/2 34/5/2
f 34/1/1 32/8/1 33/2/1
f 36/10/6 29/9/6 50/9/6 43/10/6
f 11/12/4 33/2/4 36/10/4
f 33/2/4 32/8/4 36/10/4
f 36/10/5 37/4/5 31/11/5
f 29/9/7 30/7/7 48/7/7 50/9/7
f 37/4/8 36/10/8 43/10/8 42/4/8
f 44/8/4 39/9/4 46/10/4
f 43/4/9 51/5/9 26/6/9
f 51/1/10 41/2/10 26/3/10
f 40/8/11 48/9/11 42/10/11
f 42/10/15 24/11/15 22/12/15
f 38/7/3 47/4/3 52/4/3 61/7/3
f 26/6/9 24/11/9 43/4/9
f 43/4/9 50/7/9 51/5/9
f 51/1/10 40/8/10 41/2/10
f 22/12/16 41/2/16 42/10/16
f 41/2/11 40/8/11 42/10/11
f 42/10/12 43/4/12 24/11/12
f 46/10/5 30/11/5 29/12/5
f 34/6/2 30/11/2 47/4/2
f 47/4/2 38/7/2 45/5/2
f 45/1/1 44/8/1 32/2/1
f 46/10/6 39/9/6 49/9/6 53/10/6
f 29/12/4 32/2/4 46/10/4
f 32/2/4 44/8/4 46/10/4
f 46/10/5 47/4/5 30/11/5
f 39/9/7 38/7/7 61/7/7 49/9/7
f 47/4/8 46/10/8 53/10/8 52/4/8
f 53/4/9 65/5/9 51/6/9
f 65/1/10 40/2/10 51/3/10
f 64/8/11 61/9/11 52/10/11
f 52/10/12 50/11/12 48/12/12
f 51/6/9 50/11/9 53/4/9
f 53/4/9 49/7/9 65/5/9
f 65/1/10 64/8/10 40/2/10
f 48/12/11 40/2/11 52/10/11
f 40/2/11 64/8/11 52/10/11
f 52/10/12 53/4/12 50/11/12
f 68/1/1 55/2/1 56/3/1
f 58/4/2 56/5/2 45/6/2
f 56/1/1 44/2/1 45/3/1
f 59/7/3 58/4/3 66/4/3 71/7/3
f 55/8/4 54/9/4 57/10/4
f 57/10/5 38/11/5 39/12/5
f 70/4/2 68/5/2 56/6/2
f 45/6/2 38/11/2 58/4/2
f 58/4/2 59/7/2 56/5/2
f 56/1/1 55/8/1 44/2/1
f 57/10/6 54/9/6 62/9/6 67/10/6
f 39/12/4 44/2/4 57/10/4
f 44/2/4 55/8/4 57/10/4
f 57/10/5 58/4/5 38/11/5
f 54/9/7 59/7/7 71/7/7 62/9/7
f 58/4/8 57/10/8 67/10/8 66/4/8
f 79/8/4 77/9/4 69/10/4
f 67/4/9 73/5/9 65/6/9
f 73/1/10 64/2/10 65/3/10
f 63/8/11 71/9/11 66/10/11
f 66/10/12 49/11/12 61/12/12
f 60/7/3 70/4/3 74/4/3 83/7/3
f 65/6/9 49/11/9 67/4/9
f 67/4/9 62/7/9 73/5/9
f 73/1/10 63/8/10 64/2/10
f 61/12/11 64/2/11 66/10/11
f 64/2/11 63/8/11 66/10/11
f 66/10/12 67/4/12 49/11/12
f 69/10/5 59/11/5 54/12/5
f 56/6/2 59/11/2 70/4/2
f 70/4/2 60/7/2 68/5/2
f 68/1/1 79/8/1 55/2/1
f 69/10/6 77/9/6 72/9/6 75/10/6
f 54/12/4 55/2/4 69/10/4
f 55/2/4 79/8/4 69/10/4
f 69/10/5 70/4/5 59/11/5
f 77/9/7 60/7/7 83/7/7 72/9/7
f 70/4/8 69/10/8 75/10/8 74/4/8
f 75/4/9 87/5/9 73/6/9
f 87/1/10 63/2/10 73/3/10
f 85/8/11 83/9/11 74/10/11
f 74/10/12 62/11/12 71/12/12
f 73/6/9 62/11/9 75/4/9
f 75/4/9 72/7/9 87/5/9
f 87/1/10 85/8/10 63/2/10
f 71/12/11 63/2/11 74/10/11
f 63/2/11 85/8/11 74/10/11
f 74/10/12 75/4/12 62/11/12
f 106/1/1 91/2/1 92/3/1
f 81/4/2 92/5/2 68/6/2
f 92/1/1 79/2/1 68/3/1
f 78/7/3 81/4/3 88/4/3 96/7/3
f 91/8/4 76/9/4 80/10/4
f 80/10/5 60/11/5 77/12/5
f 94/4/2 106/5/2 92/6/2
f 68/6/2 60/11/2 81/4/2
f 81/4/2 78/7/2 92/5/2
f 92/1/1 91/8/1 79/2/1
f 80/10/6 76/9/6 84/9/6 89/10/6
f 77/12/4 79/2/4 80/10/4
f 79/2/4 91/8/4 80/10/4
f 80/10/5 81/4/5 60/11/5
f 76/9/7 78/7/7 96/7/7 84/9/7
f 81/4/8 80/10/8 89/10/8 88/4/8
f 90/8/4 82/9/4 93/10/4
f 89/4/9 86/5/9 87/6/9
f 86/1/10 85/2/10 87/3/10
f 98/8/11 96/9/11 88/10/11
f 88/10/12 72/11/12 83/12/12
f 104/7/13 94/4/13 100/4/13 95/7/13
f 87/6/9 72/11/9 89/4/9
f 89/4/9 84/7/9 86/5/9
f 86/1/10 98/8/10 85/2/10
f 83/12/11 85/2/11 88/10/11
f 85/2/11 98/8/11 88/10/11
f 88/10/12 89/4/12 72/11/12
f 93/10/5 78/11/5 76/12/5
f 92/6/2 78/11/2 94/4/2
f 94/4/2 104/7/2 106/5/2
f 106/1/1 90/8/1 91/2/1
f 93/10/6 82/9/6 112/9/6 101/10/6
f 76/12/4 91/2/4 93/10/4
f 91/2/4 90/8/4 93/10/4
f 93/10/5 94/4/5 78/11/5
f 82/9/7 104/7/7 95/7/7 112/9/7
f 94/4/8 93/10/8 101/10/8 100/4/8
f 101/4/9 99/5/9 86/6/9
f 99/1/10 98/2/10 86/3/10
f 97/8/14 95/9/14 100/10/14
f 100/10/12 84/11/12 96/12/12
f 86/6/9 84/11/9 101/4/9
f 101/4/9 112/7/9 99/5/9
f 99/1/10 97/8/10 98/2/10
f 96/12/11 98/2/11 100/10/11
f 98/2/11 97/8/11 100/10/11
f 100/10/12 101/4/12 84/11/12
f 128/1/1 105/2/1 117/3/1
f 108/4/2 117/5/2 106/6/2
f 117/1/1 90/2/1 106/3/1
f 103/7/13 108/4/13 114/4/13 109/7/13
f 105/8/4 102/9/4 107/10/4
f 107/10/5 104/11/5 82/12/5
f 119/4/2 128/5/2 117/6/2
f 106/6/2 104/11/2 108/4/2
f 108/4/2 103/7/2 117/5/2
f 117/1/1 105/8/1 90/2/1
f 107/10/6 102/9/6 111/9/6 115/10/6
f 82/12/4 90/2/4 107/10/4
f 90/2/4 105/8/4 107/10/4
f 107/10/5 108/4/5 104/11/5
f 102/9/7 103/7/7 109/7/7 111/9/7
f 108/4/8 107/10/8 115/10/8 114/4/8
f 116/8/4 124/9/4 118/10/4
f 115/4/9 113/5/9 99/6/9
f 113/1/10 97/2/10 99/3/10
f 120/8/14 109/9/14 114/10/14
f 114/10/15 112/11/15 95/12/15
f 110/7/3 119/4/3 122/4/3 132/7/3
f 99/6/9 112/11/9 115/4/9
f 115/4/9 111/7/9 113/5/9
f 113/1/10 120/8/10 97/2/10
f 95/12/16 97/2/16 114/10/16
f 97/2/11 120/8/11 114/10/11
f 114/10/12 115/4/12 112/11/12
f 118/10/5 103/11/5 102/12/5
f 117/6/2 103/11/2 119/4/2
f 119/4/2 110/7/2 128/5/2
f 128/1/1 116/8/1 105/2/1
f 118/10/6 124/9/6 134/9/6 123/10/6
f 102/12/4 105/2/4 118/10/4
f 105/2/4 116/8/4 118/10/4
f 118/10/5 119/4/5 103/11/5
f 124/9/7 110/7/7 132/7/7 134/9/7
f 119/4/8 118/10/8 123/10/8 122/4/8
f 123/4/9 121/5/9 113/6/9
f 121/1/10 120/2/10 113/3/10
f 135/8/11 132/9/11 122/10/11
f 122/10/15 111/11/15 109/12/15
f 113/6/9 111/11/9 123/4/9
f 123/4/9 134/7/9 121/5/9
f 121/1/10 135/8/10 120/2/10
f 109/12/16 120/2/16 122/10/16
f 120/2/11 135/8/11 122/10/11
f 122/10/12 123/4/12 111/11/12
f 151/1/1 126/2/1 127/3/1
f 130/4/2 127/5/2 128/6/2
f 127/1/1 116/2/1 128/3/1
f 125/7/3 130/4/3 136/4/3 140/7/3
f 126/8/4 131/9/4 129/10/4
f 129/10/5 110/11/5 124/12/5
f 139/4/2 151/5/2 127/6/2
f 128/6/2 110/11/2 130/4/2
f 130/4/2 125/7/2 127/5/2
f 127/1/1 126/8/1 116/2/1
f 129/10/6 131/9/6 133/9/6 137/10/6
f 124/12/4 116/2/4 129/10/4
f 116/2/4 126/8/4 129/10/4
f 129/10/5 130/4/5 110/11/5
f 131/9/7 125/7/7 140/7/7 133/9/7
f 130/4/8 129/10/8 137/10/8 136/4/8
f 149/8/4 146/9/4 138/10/4
f 137/4/9 143/5/9 121/6/9
f 143/1/10 135/2/10 121/3/10
f 142/8/11 140/9/11 136/10/11
f 136/10/12 134/11/12 132/12/12
f 148/7/3 139/4/3 144/4/3 158/7/3
f 121/6/9 134/11/9 137/4/9
f 137/4/9 133/7/9 143/5/9
f 143/1/10 142/8/10 135/2/10
f 132/12/11 135/2/11 136/10/11
f 135/2/11 142/8/11 136/10/11
f 136/10/12 137/4/12 134/11/12
f 138/10/5 125/11/5 131/12/5
f 127/6/2 125/11/2 139/4/2
f 139/4/2 148/7/2 151/5/2
f 151/1/1 149/8/1 126/2/1
f 138/10/6 146/9/6 160/9/6 145/10/6
f 131/12/4 126/2/4 138/10/4
f 126/2/4 149/8/4 138/10/4
f 138/10/5 139/4/5 125/11/5
f 146/9/7 148/7/7 158/7/7 160/9/7
f 139/4/8 138/10/8 145/10/8 144/4/8
f 145/4/9 163/5/9 143/6/9
f 163/1/10 142/2/10 143/3/10
f 141/8/11 158/9/11 144/10/11
f 144/10/12 133/11/12 140/12/12
f 143/6/9 133/11/9 145/4/9
f 145/4/9 160/7/9 163/5/9
f 163/1/10 141/8/10 142/2/10
f 140/12/11 142/2/11 144/10/11
f 142/2/11 141/8/11 144/10/11
f 144/10/12 145/4/12 133/11/12
f 168/1/1 167/2/1 150/3/1
f 153/4/2 150/5/2 151/6/2
f 150/1/1 149/2/1 151/3/1
f 147/7/13 153/4/13 164/4/13 154/7/13
f 167/8/4 156/9/4 152/10/4
f 152/10/5 148/11/5 146/12/5
f 170/4/2 168/5/2 150/6/2
f 151/6/2 148/11/2 153/4/2
f 153/4/2 147/7/2 150/5/2
f 150/1/1 167/8/1 149/2/1
f 152/10/6 156/9/6 159/9/6 165/10/6
f 146/12/4 149/2/4 152/10/4
f 149/2/4 167/8/4 152/10/4
f 152/10/5 153/4/5 148/11/5
f 156/9/7 147/7/7 154/7/7 159/9/7
f 153/4/8 152/10/8 165/10/8 164/4/8
f 166/8/4 157/9/4 169/10/4
f 165/4/9 162/5/9 163/6/9
f 162/1/10 141/2/10 163/3/10
f 161/8/14 154/9/14 164/10/14
f 164/10/12 160/11/12 158/12/12
f 155/7/3 170/4/3 172/4/3 181/7/3
f 163/6/9 160/11/9 165/4/9
f 165/4/9 159/7/9 162/5/9
f 162/1/10 161/8/10 141/2/10
f 158/12/11 141/2/11 164/10/11
f 141/2/11 161/8/11 164/10/11
f 164/10/12 165/4/12 160/11/12
f 169/10/5 147/11/5 156/12/5
f 150/6/2 147/11/2 170/4/2
f 170/4/2 155/7/2 168/5/2
f 168/1/1 166/8/1 167/2/1
f 169/10/6 157/9/6 183/9/6 173/10/6
f 156/12/4 167/2/4 169/10/4
f 167/2/4 166/8/4 169/10/4
f 169/10/5 170/4/5 147/11/5
f 157/9/7 155/7/7 181/7/7 183/9/7
f 170/4/8 169/10/8 173/10/8 172/4/8
f 173/4/9 171/5/9 162/6/9
f 171/1/10 161/2/10 162/3/10
f 185/8/11 181/9/11 172/10/11
f 172/10/15 159/11/15 154/12/15
f 162/6/9 159/11/9 173/4/9
f 173/4/9 183/7/9 171/5/9
f 171/1/10 185/8/10 161/2/10
f 154/12/16 161/2/16 172/10/16
f 161/2/11 185/8/11 172/10/11
f 172/10/12 173/4/12 159/11/12
f 190/1/1 174/2/1 175/3/1
f 177/4/2 175/5/2 168/6/2
f 175/1/1 166/2/1 168/3/1
f 178/7/13 177/4/13 187/4/13 179/7/13
f 174/8/4 180/9/4 176/10/4
f 176/10/5 155/11/5 157/12/5
f 192/4/2 190/5/2 175/6/2
f 168/6/2 155/11/2 177/4/2
f 177/4/2 178/7/2 175/5/2
f 175/1/1 174/8/1 166/2/1
f 176/10/6 180/9/6 182/9/6 188/10/6
f 157/12/4 166/2/4 176/10/4
f 166/2/4 174/8/4 176/10/4
f 176/10/5 177/4/5 155/11/5
f 180/9/7 178/7/7 179/7/7 182/9/7
f 177/4/8 176/10/8 188/10/8 187/4/8
f 189/8/4 199/9/4 191/10/4
f 188/4/9 186/5/9 171/6/9
f 186/1/10 185/2/10 171/3/10
f 184/8/14 179/9/14 187/10/14
f 187/10/12 183/11/12 181/12/12
f 198/7/13 192/4/13 196/4/13 193/7/13
f 171/6/9 183/11/9 188/4/9
f 188/4/9 182/7/9 186/5/9
f 186/1/10 184/8/10 185/2/10
f 181/12/11 185/2/11 187/10/11
f 185/2/11 184/8/11 187/10/11
f 187/10/12 188/4/12 183/11/12
f 191/10/5 178/11/5 180/12/5
f 175/6/2 178/11/2 192/4/2
f 192/4/2 198/7/2 190/5/2
f 190/1/1 189/8/1 174/2/1
f 191/10/6 199/9/6 194/9/6 197/10/6
f 180/12/4 174/2/4 191/10/4
f 174/2/4 189/8/4 191/10/4
f 191/10/5 192/4/5 178/11/5
f 199/9/7 198/7/7 193/7/7 194/9/7
f 192/4/8 191/10/8 197/10/8 196/4/8
f 197/4/9 195/5/9 186/6/9
f 195/1/10 184/2/10 186/3/10
f 200/8/14 193/9/14 196/10/14
f 196/10/15 182/11/15 179/12/15
f 186/6/9 182/11/9 197/4/9
f 197/4/9 194/7/9 195/5/9
f 195/1/10 200/8/10 184/2/10
f 179/12/16 184/2/16 196/10/16
f 184/2/11 200/8/11 196/10/11
f 196/10/12 197/4/12 182/11/12
f 202/1/1 189/2/1 190/3/1
f 204/4/2 202/5/2 190/6/2
f 201/8/4 210/9/4 203/10/4
f 207/7/13 204/4/13 205/4/13 208/7/13
f 203/10/5 198/11/5 199/12/5
f 190/6/2 198/11/2 204/4/2
f 204/4/2 207/7/2 202/5/2
f 202/1/1 201/8/1 189/2/1
f 203/10/6 210/9/6 212/9/6 206/10/6
f 199/12/4 189/2/4 203/10/4
f 189/2/4 201/8/4 203/10/4
f 203/10/5 204/4/5 198/11/5
f 210/9/7 207/7/7 208/7/7 212/9/7
f 204/4/8 203/10/8 206/10/8 205/4/8
f 206/4/9 214/5/9 195/6/9
f 214/1/10 200/2/10 195/3/10
f 213/8/14 208/9/14 205/10/14
f 205/10/15 194/11/15 193/12/15
f 195/6/9 194/11/9 206/4/9
f 206/4/9 212/7/9 214/5/9
f 214/1/10 213/8/10 200/2/10
f 193/12/16 200/2/16 205/10/16
f 200/2/11 213/8/11 205/10/11
f 205/10/12 206/4/12 194/11/12
f 216/1/1 201/2/1 202/3/1
f 218/4/2 216/5/2 202/6/2
f 215/8/4 211/9/4 217/10/4
f 209/7/13 218/4/13 223/4/13 219/7/13
f 217/10/5 207/11/5 210/12/5
f 202/6/2 207/11/2 218/4/2
f 218/4/2 209/7/2 216/5/2
f 216/1/1 215/8/1 201/2/1
f 217/10/6 211/9/6 220/9/6 224/10/6
f 210/12/4 201/2/4 217/10/4
f 201/2/4 215/8/4 217/10/4
f 217/10/5 218/4/5 207/11/5
f 211/9/7 209/7/7 219/7/7 220/9/7
f 218/4/8 217/10/8 224/10/8 223/4/8
f 224/4/9 222/5/9 214/6/9
f 222/1/10 213/2/10 214/3/10
f 221/8/14 219/9/14 223/10/14
f 223/10/15 212/11/15 208/12/15
f 214/6/9 212/11/9 224/4/9
f 224/4/9 220/7/9 222/5/9
f 222/1/10 221/8/10 213/2/10
f 208/12/16 213/2/16 223/10/16
f 213/2/11 221/8/11 223/10/11
f 223/10/12 224/4/12 212/11/12
