# Blender 4.0.2
# www.blender.org
mtllib room.mtl
o walls
v -25.000000 0.000000 25.000000
v -15.000000 0.000000 25.000000
v -5.000000 0.000000 25.000000
v 5.000001 0.000000 25.000000
v 15.000000 0.000000 25.000000
v 25.000000 0.000000 25.000000
v -25.000000 0.000000 15.000000
v 25.000000 0.000000 15.000000
v -25.000000 0.000000 5.000000
v 25.000000 0.000000 5.000000
v -25.000000 0.000000 -5.000001
v 25.000000 0.000000 -5.000001
v -25.000000 0.000000 -15.000000
v 25.000000 0.000000 -15.000000
v -25.000000 0.000000 -25.000000
v -15.000000 0.000000 -25.000000
v -5.000000 0.000000 -25.000000
v 5.000001 0.000000 -25.000000
v 15.000000 0.000000 -25.000000
v 25.000000 0.000000 -25.000000
v 5.000001 30.000000 25.000000
v 15.000000 30.000000 25.000000
v -25.000000 30.000000 15.000000
v -25.000000 30.000000 5.000000
v 25.000000 30.000000 5.000000
v -25.000000 30.000000 -25.000000
v 15.000000 30.000000 -25.000000
v -25.000000 30.000000 25.000000
v -15.000000 30.000000 25.000000
v -5.000000 30.000000 25.000000
v 25.000000 30.000000 25.000000
v 25.000000 30.000000 15.000000
v -25.000000 30.000000 -5.000001
v 25.000000 30.000000 -5.000001
v -25.000000 30.000000 -15.000000
v 25.000000 30.000000 -15.000000
v -15.000000 30.000000 -25.000000
v -5.000000 30.000000 -25.000000
v 5.000001 30.000000 -25.000000
v 25.000000 30.000000 -25.000000
v -5.000000 20.000000 -25.000000
v -5.000000 10.000000 -25.000000
v 5.000001 10.000000 -25.000000
v 5.000001 20.000000 -25.000000
v -5.000000 20.000000 25.000000
v -5.000000 10.000000 25.000000
v -15.000000 10.000000 25.000000
v -15.000000 20.000000 25.000000
v -25.000000 20.000000 -15.000000
v -25.000000 10.000000 -15.000000
v -25.000000 10.000000 -25.000000
v -25.000000 20.000000 -25.000000
v -25.000000 20.000000 5.000000
v -25.000000 10.000000 5.000000
v -25.000000 10.000000 -5.000001
v -25.000000 20.000000 -5.000001
v 15.000000 10.000000 -25.000000
v 15.000000 20.000000 -25.000000
v 25.000000 20.000000 25.000000
v 25.000000 10.000000 25.000000
v 15.000000 10.000000 25.000000
v 15.000000 20.000000 25.000000
v 25.000000 20.000000 -25.000000
v 25.000000 10.000000 -25.000000
v 25.000000 10.000000 -15.000000
v 25.000000 20.000000 -15.000000
v 25.000000 20.000000 -5.000001
v 25.000000 10.000000 -5.000001
v 25.000000 10.000000 5.000000
v 25.000000 20.000000 5.000000
v -15.000000 10.000000 -25.000000
v -15.000000 20.000000 -25.000000
v 25.000000 20.000000 15.000000
v 25.000000 10.000000 15.000000
v 5.000001 20.000000 25.000000
v 5.000001 10.000000 25.000000
v -25.000000 20.000000 25.000000
v -25.000000 10.000000 25.000000
v -25.000000 10.000000 15.000000
v -25.000000 20.000000 15.000000
vn -0.0000 -0.0000 1.0000
vn -0.0000 -0.0000 -1.0000
vn 1.0000 -0.0000 -0.0000
vn -1.0000 -0.0000 -0.0000
vt -0.484985 0.999985
vt 2.014986 0.999985
vt 2.014986 3.499955
vt -0.484985 3.499955
vt 2.014987 0.999985
vt 4.514957 0.999985
vt 4.514957 3.499955
vt 2.014987 3.499955
vt 4.014957 1.999985
vt 6.514927 1.999985
vt 6.514927 4.499955
vt 4.014957 4.499955
vt -0.984983 1.999985
vt 1.514988 1.999985
vt 1.514988 4.499955
vt -0.984982 4.499955
vt 4.514955 0.999985
vt 4.514955 3.499955
vt -5.484923 0.999986
vt -2.984953 0.999986
vt -2.984953 3.499955
vt -5.484922 3.499955
vt -4.984925 0.999986
vt -2.484955 0.999986
vt -2.484955 3.499956
vt -4.984924 3.499956
vt 0.015015 0.999986
vt 2.514984 0.999986
vt 2.514984 3.499956
vt 0.015015 3.499956
vt -5.484925 0.999986
vt -2.984955 0.999986
vt -2.984955 3.499955
vt -5.484925 3.499955
vt 5.014955 0.999985
vt 7.514925 0.999985
vt 7.514925 3.499955
vt 5.014955 3.499956
vt -0.484983 0.999985
vt -0.484983 3.499955
vt 7.014925 0.999985
vt 7.014925 3.499955
vt -5.984923 1.999986
vt -3.484953 1.999986
vt -3.484953 4.499955
vt -5.984922 4.499955
vt 7.014927 0.999985
vt 7.014927 3.499955
vt 2.514984 -3.999954
vt 5.014955 -3.999954
vt 5.014955 -1.499985
vt 2.514984 -1.499985
vt -2.484955 -3.999954
vt 0.015014 -3.999954
vt 0.015015 -1.499985
vt -2.484955 -1.499984
vt -2.984953 -3.999954
vt -0.484984 -3.999955
vt -0.484983 -1.499984
vt -2.984953 -1.499984
vt -3.484953 -2.999954
vt -0.984983 -2.999955
vt -0.984983 -0.499984
vt -3.484953 -0.499984
vt -2.984956 -3.999954
vt -0.484985 -3.999955
vt -0.484985 -1.499984
vt -2.984955 -1.499984
vt 1.514987 -2.999955
vt 4.014957 -2.999955
vt 4.014957 -0.499985
vt 1.514987 -0.499985
vt 4.514957 -3.999955
vt 7.014926 -3.999955
vt 7.014927 -1.499985
vt 4.514957 -1.499985
vt -5.984922 -2.999954
vt -5.984923 -0.499984
vt 4.514955 -3.999955
vt 7.014924 -3.999955
vt 7.014925 -1.499985
vt 4.514955 -1.499985
vt 2.014987 -3.999955
vt 2.014987 -1.499985
vt 7.514925 -3.999955
vt 7.514925 -1.499985
vt -5.484925 -3.999954
vt -5.484925 -1.499984
vt -4.984924 -3.999954
vt -4.984925 -1.499984
vt -5.484922 -3.999954
vt -5.484923 -1.499984
vt 2.014985 -3.999955
vt 2.014985 -1.499985
vt 6.514926 -2.999955
vt 6.514927 -0.499986
s 0
usemtl orange_tile
f 41/1/1 44/2/1 39/3/1 38/4/1
f 45/5/2 48/6/2 29/7/2 30/8/2
f 49/9/3 52/10/3 26/11/3 35/12/3
f 53/13/3 56/14/3 33/15/3 24/16/3
f 44/2/1 58/17/1 27/18/1 39/3/1
f 59/19/2 62/20/2 22/21/2 31/22/2
f 63/23/4 66/24/4 36/25/4 40/26/4
f 67/27/4 70/28/4 25/29/4 34/30/4
f 52/31/1 72/32/1 37/33/1 26/34/1
f 73/35/4 59/36/4 31/37/4 32/38/4
f 75/39/2 45/5/2 30/8/2 21/40/2
f 58/17/1 63/41/1 40/42/1 27/18/1
f 77/43/3 80/44/3 23/45/3 28/46/3
f 48/6/2 77/47/2 28/48/2 29/7/2
f 56/14/3 49/9/3 35/12/3 33/15/3
f 72/32/1 41/1/1 38/4/1 37/33/1
f 80/44/3 53/13/3 24/16/3 23/45/3
f 62/20/2 75/39/2 21/40/2 22/21/2
f 66/24/4 67/27/4 34/30/4 36/25/4
f 70/28/4 73/35/4 32/38/4 25/29/4
f 10/49/4 8/50/4 74/51/4 69/52/4
f 69/52/4 74/51/4 73/35/4 70/28/4
f 14/53/4 12/54/4 68/55/4 65/56/4
f 65/56/4 68/55/4 67/27/4 66/24/4
f 5/57/2 4/58/2 76/59/2 61/60/2
f 61/60/2 76/59/2 75/39/2 62/20/2
f 7/61/3 9/62/3 54/63/3 79/64/3
f 79/64/3 54/63/3 53/13/3 80/44/3
f 16/65/1 17/66/1 42/67/1 71/68/1
f 71/68/1 42/67/1 41/1/1 72/32/1
f 11/69/3 13/70/3 50/71/3 55/72/3
f 55/72/3 50/71/3 49/9/3 56/14/3
f 2/73/2 1/74/2 78/75/2 47/76/2
f 47/76/2 78/75/2 77/47/2 48/6/2
f 1/77/3 7/61/3 79/64/3 78/78/3
f 78/78/3 79/64/3 80/44/3 77/43/3
f 19/79/1 20/80/1 64/81/1 57/82/1
f 57/82/1 64/81/1 63/41/1 58/17/1
f 4/58/2 3/83/2 46/84/2 76/59/2
f 76/59/2 46/84/2 45/5/2 75/39/2
f 8/50/4 6/85/4 60/86/4 74/51/4
f 74/51/4 60/86/4 59/36/4 73/35/4
f 15/87/1 16/65/1 71/68/1 51/88/1
f 51/88/1 71/68/1 72/32/1 52/31/1
f 12/54/4 10/49/4 69/52/4 68/55/4
f 68/55/4 69/52/4 70/28/4 67/27/4
f 20/89/4 14/53/4 65/56/4 64/90/4
f 64/90/4 65/56/4 66/24/4 63/23/4
f 6/91/2 5/57/2 61/60/2 60/92/2
f 60/92/2 61/60/2 62/20/2 59/19/2
f 18/93/1 19/79/1 57/82/1 43/94/1
f 43/94/1 57/82/1 58/17/1 44/2/1
f 9/62/3 11/69/3 55/72/3 54/63/3
f 54/63/3 55/72/3 56/14/3 53/13/3
f 13/70/3 15/95/3 51/96/3 50/71/3
f 50/71/3 51/96/3 52/10/3 49/9/3
f 3/83/2 2/73/2 47/76/2 46/84/2
f 46/84/2 47/76/2 48/6/2 45/5/2
f 17/66/1 18/93/1 43/94/1 42/67/1
f 42/67/1 43/94/1 44/2/1 41/1/1
o floor
v -25.000000 0.000000 25.000000
v -15.000000 0.000000 25.000000
v -5.000000 0.000000 25.000000
v 5.000001 0.000000 25.000000
v 15.000000 0.000000 25.000000
v 25.000000 0.000000 25.000000
v -25.000000 0.000000 15.000000
v -15.000000 0.000000 15.000000
v -5.000000 0.000000 15.000000
v 5.000001 0.000000 15.000000
v 15.000000 0.000000 15.000000
v 25.000000 0.000000 15.000000
v -25.000000 0.000000 5.000000
v -15.000000 0.000000 5.000000
v -5.000000 0.000000 5.000000
v 5.000001 0.000000 5.000000
v 15.000000 0.000000 5.000000
v 25.000000 0.000000 5.000000
v -25.000000 0.000000 -5.000001
v -15.000000 0.000000 -5.000001
v -5.000000 0.000000 -5.000001
v 5.000001 0.000000 -5.000001
v 15.000000 0.000000 -5.000001
v 25.000000 0.000000 -5.000001
v -25.000000 0.000000 -15.000000
v -15.000000 0.000000 -15.000000
v -5.000000 0.000000 -15.000000
v 5.000001 0.000000 -15.000000
v 15.000000 0.000000 -15.000000
v 25.000000 0.000000 -15.000000
v -25.000000 0.000000 -25.000000
v -15.000000 0.000000 -25.000000
v -5.000000 0.000000 -25.000000
v 5.000001 0.000000 -25.000000
v 15.000000 0.000000 -25.000000
v 25.000000 0.000000 -25.000000
v 5.000001 30.000000 25.000000
v 15.000000 30.000000 25.000000
v -25.000000 30.000000 15.000000
v -25.000000 30.000000 5.000000
v 25.000000 30.000000 5.000000
v -25.000000 30.000000 -25.000000
v 15.000000 30.000000 -25.000000
v -25.000000 30.000000 25.000000
v -15.000000 30.000000 25.000000
v -5.000000 30.000000 25.000000
v 25.000000 30.000000 25.000000
v -15.000000 30.000000 15.000000
v -5.000000 30.000000 15.000000
v 5.000001 30.000000 15.000000
v 15.000000 30.000000 15.000000
v 25.000000 30.000000 15.000000
v -15.000000 30.000000 5.000000
v -5.000000 30.000000 5.000000
v 5.000001 30.000000 5.000000
v 15.000000 30.000000 5.000000
v -25.000000 30.000000 -5.000001
v -15.000000 30.000000 -5.000001
v -5.000000 30.000000 -5.000001
v 5.000001 30.000000 -5.000001
v 15.000000 30.000000 -5.000001
v 25.000000 30.000000 -5.000001
v -25.000000 30.000000 -15.000000
v -15.000000 30.000000 -15.000000
v -5.000000 30.000000 -15.000000
v 5.000001 30.000000 -15.000000
v 15.000000 30.000000 -15.000000
v 25.000000 30.000000 -15.000000
v -15.000000 30.000000 -25.000000
v -5.000000 30.000000 -25.000000
v 5.000001 30.000000 -25.000000
v 25.000000 30.000000 -25.000000
vn -0.0000 1.0000 -0.0000
vn -0.0000 -1.0000 -0.0000
vt -11.985000 -12.015000
vt -6.985001 -12.015000
vt -6.985001 -7.015000
vt -11.985000 -7.015000
vt -1.985000 -12.015000
vt -1.985000 -7.015000
vt 3.015001 -12.015000
vt 3.015001 -7.015000
vt -1.984999 -7.015000
vt 8.015000 -12.015000
vt 8.015000 -7.015000
vt 13.015000 -12.015000
vt 13.015000 -7.015000
vt -6.985001 -2.015000
vt -11.985000 -2.015000
vt -1.985000 -2.015000
vt 3.015001 -2.015000
vt -1.984999 -2.015000
vt 8.015000 -2.015000
vt 13.015000 -2.015000
vt -11.985000 -2.014999
vt -6.985001 -2.014999
vt -6.985001 2.985000
vt -11.985000 2.985000
vt -1.985000 -2.014999
vt -1.985000 2.985000
vt 3.015001 -2.014999
vt 3.015001 2.985000
vt -1.984999 2.985000
vt 8.015000 -2.014999
vt 8.015000 2.985000
vt 13.015000 -2.014999
vt 13.015000 2.985000
vt -6.985001 7.985000
vt -11.985000 7.985000
vt -1.985000 7.985000
vt 3.015001 7.985000
vt -1.984999 7.985000
vt 8.015000 7.985000
vt 13.015000 7.985000
vt -6.985001 12.985000
vt -11.985000 12.985000
vt -1.985000 12.985000
vt 3.015001 12.985000
vt -1.984999 12.985000
vt 8.015000 12.985000
vt 13.015000 12.985000
vt -5.485001 -5.015002
vt -5.485001 -2.515001
vt -2.984999 -2.515001
vt -2.984999 -5.015002
vt -0.484999 -2.515001
vt -0.484999 -5.015002
vt -0.484999 -2.515001
vt 2.015001 -2.515001
vt 2.015001 -5.015002
vt 4.514999 -2.515001
vt 4.514999 -5.015002
vt 7.014999 -2.515001
vt 7.014999 -5.015002
vt -5.485001 -0.015001
vt -2.984999 -0.015001
vt -0.484999 -0.015001
vt -0.484999 -0.015001
vt 2.015001 -0.015001
vt 4.514999 -0.015001
vt 7.014999 -0.015001
vt -5.485001 -0.015000
vt -5.485001 2.485000
vt -2.984999 2.485000
vt -2.984999 -0.015000
vt -0.484999 2.485000
vt -0.484999 -0.015000
vt -0.484999 2.485000
vt 2.015001 2.485000
vt 2.015001 -0.015000
vt 4.514999 2.485000
vt 4.514999 -0.015000
vt 7.014999 2.485000
vt 7.014999 -0.015000
vt -5.485001 4.984998
vt -2.984999 4.984998
vt -0.484999 4.984998
vt -0.484999 4.984998
vt 2.015001 4.984998
vt 4.514999 4.984998
vt 7.014999 4.984998
vt -5.485001 7.484998
vt -2.984999 7.484998
vt -0.484999 7.484998
vt -0.484999 7.484998
vt 2.015001 7.484998
vt 4.514999 7.484998
vt 7.014999 7.484998
s 0
usemtl grey_tile
f 81/97/5 82/98/5 88/99/5 87/100/5
f 82/98/5 83/101/5 89/102/5 88/99/5
f 83/101/5 84/103/5 90/104/5 89/105/5
f 84/103/5 85/106/5 91/107/5 90/104/5
f 85/106/5 86/108/5 92/109/5 91/107/5
f 87/100/5 88/99/5 94/110/5 93/111/5
f 88/99/5 89/102/5 95/112/5 94/110/5
f 89/102/5 90/104/5 96/113/5 95/114/5
f 90/104/5 91/107/5 97/115/5 96/113/5
f 91/107/5 92/109/5 98/116/5 97/115/5
f 93/117/5 94/118/5 100/119/5 99/120/5
f 94/118/5 95/121/5 101/122/5 100/119/5
f 95/121/5 96/123/5 102/124/5 101/125/5
f 96/123/5 97/126/5 103/127/5 102/124/5
f 97/126/5 98/128/5 104/129/5 103/127/5
f 99/120/5 100/119/5 106/130/5 105/131/5
f 100/119/5 101/122/5 107/132/5 106/130/5
f 101/122/5 102/124/5 108/133/5 107/134/5
f 102/124/5 103/127/5 109/135/5 108/133/5
f 103/127/5 104/129/5 110/136/5 109/135/5
f 105/131/5 106/130/5 112/137/5 111/138/5
f 106/130/5 107/132/5 113/139/5 112/137/5
f 107/132/5 108/133/5 114/140/5 113/141/5
f 108/133/5 109/135/5 115/142/5 114/140/5
f 109/135/5 110/136/5 116/143/5 115/142/5
f 124/144/6 119/145/6 128/146/6 125/147/6
f 125/147/6 128/146/6 129/148/6 126/149/6
f 126/149/6 129/150/6 130/151/6 117/152/6
f 117/152/6 130/151/6 131/153/6 118/154/6
f 118/154/6 131/153/6 132/155/6 127/156/6
f 119/145/6 120/157/6 133/158/6 128/146/6
f 128/146/6 133/158/6 134/159/6 129/148/6
f 129/148/6 134/160/6 135/161/6 130/151/6
f 130/151/6 135/161/6 136/162/6 131/153/6
f 131/153/6 136/162/6 121/163/6 132/155/6
f 120/164/6 137/165/6 138/166/6 133/167/6
f 133/167/6 138/166/6 139/168/6 134/169/6
f 134/169/6 139/170/6 140/171/6 135/172/6
f 135/172/6 140/171/6 141/173/6 136/174/6
f 136/174/6 141/173/6 142/175/6 121/176/6
f 137/165/6 143/177/6 144/178/6 138/166/6
f 138/166/6 144/178/6 145/179/6 139/168/6
f 139/168/6 145/180/6 146/181/6 140/171/6
f 140/171/6 146/181/6 147/182/6 141/173/6
f 141/173/6 147/182/6 148/183/6 142/175/6
f 143/177/6 122/184/6 149/185/6 144/178/6
f 144/178/6 149/185/6 150/186/6 145/179/6
f 145/179/6 150/187/6 151/188/6 146/181/6
f 146/181/6 151/188/6 123/189/6 147/182/6
f 147/182/6 123/189/6 152/190/6 148/183/6
