# Blender 4.0.2
# www.blender.org
mtllib sphere.mtl
o sphere
v 0.000000 0.479746 -0.140866 1.0000 1.0000 1.0000
v 0.000000 0.207708 -0.454816 1.0000 1.0000 1.0000
v 0.000000 -0.207708 -0.454816 1.0000 1.0000 1.0000
v 0.000000 -0.479746 -0.140866 1.0000 1.0000 1.0000
v 0.070433 0.479746 -0.121994 1.0000 1.0000 1.0000
v 0.135160 0.420627 -0.234104 1.0000 1.0000 1.0000
v 0.188937 0.327430 -0.327249 1.0000 1.0000 1.0000
v 0.227408 0.207708 -0.393882 1.0000 1.0000 1.0000
v 0.247455 0.071157 -0.428605 1.0000 1.0000 1.0000
v 0.247455 -0.071157 -0.428605 1.0000 1.0000 1.0000
v 0.227408 -0.207708 -0.393882 1.0000 1.0000 1.0000
v 0.188937 -0.327430 -0.327249 1.0000 1.0000 1.0000
v 0.135160 -0.420627 -0.234104 1.0000 1.0000 1.0000
v 0.070433 -0.479746 -0.121994 1.0000 1.0000 1.0000
v 0.121994 0.479746 -0.070433 1.0000 1.0000 1.0000
v 0.234104 0.420627 -0.135160 1.0000 1.0000 1.0000
v 0.327249 0.327430 -0.188937 1.0000 1.0000 1.0000
v 0.393882 0.207708 -0.227408 1.0000 1.0000 1.0000
v 0.428605 0.071157 -0.247455 1.0000 1.0000 1.0000
v 0.428605 -0.071157 -0.247455 1.0000 1.0000 1.0000
v 0.393882 -0.207708 -0.227408 1.0000 1.0000 1.0000
v 0.327249 -0.327430 -0.188937 1.0000 1.0000 1.0000
v 0.234104 -0.420627 -0.135160 1.0000 1.0000 1.0000
v 0.121994 -0.479746 -0.070433 1.0000 1.0000 1.0000
v 0.140866 0.479746 0.000000 1.0000 1.0000 1.0000
v 0.270320 0.420627 0.000000 1.0000 1.0000 1.0000
v 0.377875 0.327430 0.000000 1.0000 1.0000 1.0000
v 0.454816 0.207708 0.000000 1.0000 1.0000 1.0000
v 0.494911 0.071157 0.000000 1.0000 1.0000 1.0000
v 0.494911 -0.071157 0.000000 1.0000 1.0000 1.0000
v 0.454816 -0.207708 0.000000 1.0000 1.0000 1.0000
v 0.377875 -0.327430 0.000000 1.0000 1.0000 1.0000
v 0.270320 -0.420627 0.000000 1.0000 1.0000 1.0000
v 0.140866 -0.479746 0.000000 1.0000 1.0000 1.0000
v 0.121994 0.479746 0.070433 1.0000 1.0000 1.0000
v 0.234104 0.420627 0.135160 1.0000 1.0000 1.0000
v 0.327249 0.327430 0.188937 1.0000 1.0000 1.0000
v 0.393882 0.207708 0.227408 1.0000 1.0000 1.0000
v 0.428605 0.071157 0.247455 1.0000 1.0000 1.0000
v 0.428605 -0.071157 0.247455 1.0000 1.0000 1.0000
v 0.393882 -0.207708 0.227408 1.0000 1.0000 1.0000
v 0.327249 -0.327430 0.188937 1.0000 1.0000 1.0000
v 0.234104 -0.420627 0.135160 1.0000 1.0000 1.0000
v 0.121994 -0.479746 0.070433 1.0000 1.0000 1.0000
v 0.070433 0.479746 0.121994 1.0000 1.0000 1.0000
v 0.135160 0.420627 0.234104 1.0000 1.0000 1.0000
v 0.188937 0.327430 0.327249 1.0000 1.0000 1.0000
v 0.227408 0.207708 0.393882 1.0000 1.0000 1.0000
v 0.247455 0.071157 0.428605 1.0000 1.0000 1.0000
v 0.247455 -0.071157 0.428605 1.0000 1.0000 1.0000
v 0.227408 -0.207708 0.393882 1.0000 1.0000 1.0000
v 0.188937 -0.327430 0.327249 1.0000 1.0000 1.0000
v 0.135160 -0.420627 0.234104 1.0000 1.0000 1.0000
v 0.070433 -0.479746 0.121994 1.0000 1.0000 1.0000
v -0.000000 0.479746 0.140866 1.0000 1.0000 1.0000
v 0.000000 0.420627 0.270320 1.0000 1.0000 1.0000
v 0.000000 0.327430 0.377875 1.0000 1.0000 1.0000
v -0.000000 0.207708 0.454816 1.0000 1.0000 1.0000
v 0.000000 0.071157 0.494911 1.0000 1.0000 1.0000
v 0.000000 -0.071157 0.494911 1.0000 1.0000 1.0000
v -0.000000 -0.207708 0.454816 1.0000 1.0000 1.0000
v 0.000000 -0.327430 0.377875 1.0000 1.0000 1.0000
v 0.000000 -0.420627 0.270320 1.0000 1.0000 1.0000
v -0.000000 -0.479746 0.140866 1.0000 1.0000 1.0000
v -0.070433 0.479746 0.121994 1.0000 1.0000 1.0000
v -0.135160 0.420627 0.234104 1.0000 1.0000 1.0000
v -0.188937 0.327430 0.327249 1.0000 1.0000 1.0000
v -0.227408 0.207708 0.393882 1.0000 1.0000 1.0000
v -0.247455 0.071157 0.428605 1.0000 1.0000 1.0000
v -0.247455 -0.071157 0.428605 1.0000 1.0000 1.0000
v -0.227408 -0.207708 0.393882 1.0000 1.0000 1.0000
v -0.188937 -0.327430 0.327249 1.0000 1.0000 1.0000
v -0.135160 -0.420627 0.234104 1.0000 1.0000 1.0000
v -0.070433 -0.479746 0.121994 1.0000 1.0000 1.0000
v -0.121994 0.479746 0.070433 1.0000 1.0000 1.0000
v -0.234104 0.420627 0.135160 1.0000 1.0000 1.0000
v -0.327249 0.327430 0.188937 1.0000 1.0000 1.0000
v -0.393882 0.207708 0.227408 1.0000 1.0000 1.0000
v -0.428605 0.071157 0.247455 1.0000 1.0000 1.0000
v -0.428605 -0.071157 0.247455 1.0000 1.0000 1.0000
v -0.393882 -0.207708 0.227408 1.0000 1.0000 1.0000
v -0.327249 -0.327430 0.188937 1.0000 1.0000 1.0000
v -0.234104 -0.420627 0.135160 1.0000 1.0000 1.0000
v -0.121994 -0.479746 0.070433 1.0000 1.0000 1.0000
v 0.000000 0.500000 0.000000 1.0000 1.0000 1.0000
v -0.140866 0.479746 -0.000000 1.0000 1.0000 1.0000
v -0.270320 0.420627 0.000000 1.0000 1.0000 1.0000
v -0.377875 0.327430 0.000000 1.0000 1.0000 1.0000
v -0.454816 0.207708 -0.000000 1.0000 1.0000 1.0000
v -0.494911 0.071157 0.000000 1.0000 1.0000 1.0000
v -0.494911 -0.071157 0.000000 1.0000 1.0000 1.0000
v -0.454816 -0.207708 -0.000000 1.0000 1.0000 1.0000
v -0.377875 -0.327430 0.000000 1.0000 1.0000 1.0000
v -0.270320 -0.420627 0.000000 1.0000 1.0000 1.0000
v -0.140866 -0.479746 -0.000000 1.0000 1.0000 1.0000
v -0.121994 0.479746 -0.070433 1.0000 1.0000 1.0000
v -0.234104 0.420627 -0.135160 1.0000 1.0000 1.0000
v -0.327249 0.327430 -0.188937 1.0000 1.0000 1.0000
v -0.393882 0.207708 -0.227408 1.0000 1.0000 1.0000
v -0.428605 0.071157 -0.247455 1.0000 1.0000 1.0000
v -0.428605 -0.071157 -0.247455 1.0000 1.0000 1.0000
v -0.393882 -0.207708 -0.227408 1.0000 1.0000 1.0000
v -0.327249 -0.327430 -0.188937 1.0000 1.0000 1.0000
v -0.234104 -0.420627 -0.135160 1.0000 1.0000 1.0000
v -0.121994 -0.479746 -0.070433 1.0000 1.0000 1.0000
v -0.070433 0.479746 -0.121994 1.0000 1.0000 1.0000
v -0.135160 0.420627 -0.234104 1.0000 1.0000 1.0000
v -0.188937 0.327430 -0.327249 1.0000 1.0000 1.0000
v -0.227408 0.207708 -0.393882 1.0000 1.0000 1.0000
v -0.247455 0.071157 -0.428605 1.0000 1.0000 1.0000
v -0.247455 -0.071157 -0.428605 1.0000 1.0000 1.0000
v -0.227408 -0.207708 -0.393882 1.0000 1.0000 1.0000
v -0.188937 -0.327430 -0.327249 1.0000 1.0000 1.0000
v -0.135160 -0.420627 -0.234104 1.0000 1.0000 1.0000
v -0.070433 -0.479746 -0.121994 1.0000 1.0000 1.0000
v 0.000000 0.420627 -0.270320 1.0000 1.0000 1.0000
v 0.000000 0.327430 -0.377875 1.0000 1.0000 1.0000
v 0.000000 0.071157 -0.494911 1.0000 1.0000 1.0000
v 0.000000 -0.071157 -0.494911 1.0000 1.0000 1.0000
v 0.000000 -0.327430 -0.377875 1.0000 1.0000 1.0000
v 0.000000 -0.420627 -0.270320 1.0000 1.0000 1.0000
v 0.000000 -0.500000 0.000000 1.0000 1.0000 1.0000
vn -0.0000 -0.9529 -0.3033
vn -0.0000 -0.8305 -0.5570
vn 0.2785 -0.8305 -0.4823
vn 0.1516 -0.9529 -0.2626
vn -0.0000 0.8305 -0.5570
vn 0.2785 0.8305 -0.4823
vn 0.3828 0.6434 -0.6629
vn -0.0000 0.6434 -0.7655
vn 0.4951 0.1391 -0.8576
vn 0.8576 0.1391 -0.4951
vn 0.8576 -0.1391 -0.4951
vn 0.4951 -0.1391 -0.8576
vn 0.1516 0.9529 -0.2626
vn 0.2626 0.9529 -0.1516
vn 0.4823 0.8305 -0.2785
vn -0.1516 0.9529 0.2626
vn -0.2626 0.9529 0.1516
vn -0.4823 0.8305 0.2785
vn -0.2785 0.8305 0.4823
vn -0.0000 0.4068 -0.9135
vn 0.4568 0.4068 -0.7911
vn -0.0000 0.1391 -0.9903
vn 0.7911 0.4068 0.4568
vn 0.6629 0.6434 0.3828
vn 0.3828 0.6434 0.6629
vn 0.4568 0.4068 0.7911
vn -0.0000 -1.0000 -0.0000
vn -0.0000 0.9529 -0.3033
vn -0.0000 1.0000 -0.0000
vn 0.7911 -0.4068 0.4568
vn 0.4568 -0.4068 0.7911
vn 0.3828 -0.6434 0.6629
vn 0.6629 -0.6434 0.3828
vn 0.7911 0.4068 -0.4568
vn 0.6629 0.6434 -0.3828
vn 0.4568 -0.4068 -0.7911
vn 0.7911 -0.4068 -0.4568
vn 0.4823 -0.8305 -0.2785
vn 0.2626 -0.9529 -0.1516
vn 0.9903 0.1391 -0.0000
vn 0.9903 -0.1391 -0.0000
vn -0.0000 -0.6434 -0.7655
vn 0.3828 -0.6434 -0.6629
vn 0.3033 0.9529 -0.0000
vn 0.5570 0.8305 -0.0000
vn -0.0000 0.4068 0.9135
vn -0.0000 0.1391 0.9903
vn 0.4951 0.1391 0.8576
vn -0.4568 0.4068 0.7911
vn -0.3828 0.6434 0.6629
vn -0.6629 0.6434 0.3828
vn -0.7911 0.4068 0.4568
vn 0.5570 -0.8305 -0.0000
vn 0.3033 -0.9529 -0.0000
vn 0.7655 0.6434 -0.0000
vn 0.8576 0.1391 0.4951
vn 0.8576 -0.1391 0.4951
vn 0.6629 -0.6434 -0.3828
vn -0.3033 0.9529 -0.0000
vn -0.2626 0.9529 -0.1516
vn -0.4823 0.8305 -0.2785
vn -0.5570 0.8305 -0.0000
vn 0.9135 0.4068 -0.0000
vn -0.4568 -0.4068 0.7911
vn -0.7911 -0.4068 0.4568
vn -0.6629 -0.6434 0.3828
vn -0.3828 -0.6434 0.6629
vn 0.7655 -0.6434 -0.0000
vn 0.4823 -0.8305 0.2785
vn -0.3033 -0.9529 -0.0000
vn -0.5570 -0.8305 -0.0000
vn -0.4823 -0.8305 -0.2785
vn -0.2626 -0.9529 -0.1516
vn 0.4951 -0.1391 0.8576
vn 0.9135 -0.4068 -0.0000
vn 0.2626 -0.9529 0.1516
vn 0.2626 0.9529 0.1516
vn -0.0000 0.6434 0.7655
vn 0.1516 -0.9529 0.2626
vn 0.1516 0.9529 0.2626
vn 0.2785 -0.8305 0.4823
vn -0.4951 0.1391 0.8576
vn 0.4823 0.8305 0.2785
vn 0.2785 0.8305 0.4823
vn -0.0000 -0.1391 0.9903
vn -0.0000 -0.6434 0.7655
vn -0.0000 -0.8305 0.5570
vn -0.0000 0.9529 0.3033
vn -0.0000 0.8305 0.5570
vn -0.0000 -0.4068 0.9135
vn -0.0000 -0.9529 0.3033
vn -0.4951 -0.1391 0.8576
vn -0.2785 -0.8305 0.4823
vn -0.8576 -0.1391 0.4951
vn -0.9903 -0.1391 -0.0000
vn -0.9135 -0.4068 -0.0000
vn -0.7655 0.6434 -0.0000
vn -0.9135 0.4068 -0.0000
vn -0.1516 -0.9529 0.2626
vn -0.8576 0.1391 0.4951
vn -0.7911 0.4068 -0.4568
vn -0.8576 0.1391 -0.4951
vn -0.9903 0.1391 -0.0000
vn -0.7911 -0.4068 -0.4568
vn -0.6629 -0.6434 -0.3828
vn -0.7655 -0.6434 -0.0000
vn -0.4823 -0.8305 0.2785
vn -0.1516 -0.9529 -0.2626
vn -0.2785 -0.8305 -0.4823
vn -0.8576 -0.1391 -0.4951
vn -0.4951 -0.1391 -0.8576
vn -0.4568 -0.4068 -0.7911
vn -0.6629 0.6434 -0.3828
vn -0.3828 0.6434 -0.6629
vn -0.4568 0.4068 -0.7911
vn -0.2626 -0.9529 0.1516
vn -0.3828 -0.6434 -0.6629
vn -0.4951 0.1391 -0.8576
vn -0.1516 0.9529 -0.2626
vn -0.2785 0.8305 -0.4823
vn -0.0000 -0.4068 -0.9135
vn -0.0000 -0.1391 -0.9903
vt 1.000000 0.090909
vt 1.000000 0.181818
vt 0.916667 0.181818
vt 0.916667 0.090909
vt 1.000000 0.818182
vt 0.916667 0.818182
vt 0.916667 0.727273
vt 1.000000 0.727273
vt 0.916667 0.545455
vt 0.833333 0.545455
vt 0.833333 0.454545
vt 0.916667 0.454545
vt 0.916667 0.909091
vt 0.833333 0.909091
vt 0.833333 0.818182
vt 0.416667 0.909091
vt 0.333333 0.909091
vt 0.333333 0.818182
vt 0.416667 0.818182
vt 1.000000 0.636364
vt 0.916667 0.636364
vt 1.000000 0.545455
vt 0.666667 0.570236
vt 0.666667 0.727273
vt 0.587333 0.727273
vt 0.598613 0.570236
vt 0.958333 -0.090000
vt 1.000000 0.909091
vt 0.958333 1.090000
vt 0.666667 0.431762
vt 0.595537 0.431762
vt 0.587333 0.272727
vt 0.666667 0.272727
vt 0.833333 0.636364
vt 0.833333 0.727273
vt 0.916667 0.363636
vt 0.833333 0.363636
vt 0.833333 0.181818
vt 0.833333 0.090909
vt 0.750000 0.545455
vt 0.750000 0.454545
vt 1.000000 0.272727
vt 0.916667 0.272727
vt 0.750000 0.909091
vt 0.750000 0.818182
vt 0.500000 0.570236
vt 0.500000 0.535260
vt 0.598906 0.535260
vt 0.405828 0.570236
vt 0.416267 0.727273
vt 0.333333 0.727273
vt 0.333333 0.570236
vt 0.875000 -0.090000
vt 0.875000 1.090000
vt 0.750000 0.181818
vt 0.750000 0.090909
vt 0.750000 0.727273
vt 0.666667 0.527447
vt 0.666667 0.472826
vt 0.833333 0.272727
vt 1.250000 0.909091
vt 1.166667 0.909091
vt 1.166667 0.818182
vt 1.250000 0.818182
vt 0.750000 0.636364
vt 0.405828 0.431762
vt 0.333333 0.431762
vt 0.333333 0.272727
vt 0.416267 0.272727
vt 0.791667 -0.090000
vt 0.791667 1.090000
vt 0.750000 0.272727
vt 0.666667 0.181818
vt 1.250000 0.090909
vt 1.250000 0.181818
vt 1.166667 0.181818
vt 1.166667 0.090909
vt 0.598906 0.465160
vt 0.750000 0.363636
vt 0.708333 -0.090000
vt 0.666667 0.090909
vt 0.708333 1.090000
vt 0.666667 0.909091
vt 0.250000 0.909091
vt 0.250000 0.818182
vt 0.500000 0.727273
vt 0.625000 -0.090000
vt 0.583333 0.090909
vt 0.625000 1.090000
vt 0.583333 0.909091
vt 0.583333 0.181818
vt 0.402544 0.535260
vt 0.666667 0.818182
vt 0.583333 0.818182
vt 0.500000 0.465160
vt 0.500000 0.272727
vt 0.500000 0.181818
vt 0.500000 0.909091
vt 0.500000 0.818182
vt 0.541667 1.090000
vt 0.500000 0.431762
vt 0.500000 0.090909
vt 0.402544 0.465160
vt 0.416667 0.181818
vt 0.333333 0.472826
vt 0.250000 0.454545
vt 0.250000 0.363636
vt 0.250000 0.727273
vt 0.250000 0.636364
vt 0.541667 -0.090000
vt 0.416667 0.090909
vt 0.333333 0.527447
vt 1.250000 0.636364
vt 1.166667 0.636364
vt 1.166667 0.545455
vt 1.250000 0.545455
vt 0.458333 -0.090000
vt 0.458333 1.090000
vt 1.250000 0.363636
vt 1.166667 0.363636
vt 1.166667 0.272727
vt 1.250000 0.272727
vt 0.250000 0.545455
vt 0.333333 0.181818
vt 1.083333 0.090909
vt 1.083333 0.181818
vt 1.166667 0.454545
vt 1.083333 0.454545
vt 1.083333 0.363636
vt 1.166667 0.727273
vt 1.083333 0.727273
vt 1.083333 0.636364
vt 0.375000 -0.090000
vt 0.333333 0.090909
vt 0.375000 1.090000
vt 1.083333 0.272727
vt 1.083333 0.545455
vt 1.083333 0.909091
vt 1.083333 0.818182
vt 0.250000 0.272727
vt 0.250000 0.181818
vt 0.291667 -0.090000
vt 0.250000 0.090909
vt 0.291667 1.090000
vt 1.250000 0.454545
vt 1.208333 -0.090000
vt 1.208333 1.090000
vt 1.250000 0.727273
vt 1.000000 0.363636
vt 1.000000 0.454545
vt 1.125000 -0.090000
vt 1.125000 1.090000
vt 1.041667 -0.090000
vt 1.041667 1.090000
s 1
usemtl red_tile
f 4/1/1 121/2/2 13/3/3 14/4/4
f 116/5/5 6/6/6 7/7/7 117/8/8
f 9/9/9 19/10/10 20/11/11 10/12/12
f 5/13/13 15/14/14 16/15/15 6/6/6
f 65/16/16 75/17/17 76/18/18 66/19/19
f 2/20/20 8/21/21 9/9/9 118/22/22
f 38/23/23 37/24/24 47/25/25 48/26/26
f 122/27/27 4/1/1 14/4/4
f 1/28/28 85/29/29 5/13/13
f 41/30/30 51/31/31 52/32/32 42/33/33
f 8/21/21 18/34/34 19/10/10 9/9/9
f 7/7/7 17/35/35 18/34/34 8/21/21
f 11/36/36 10/12/12 20/11/11 21/37/37
f 13/3/3 23/38/38 24/39/39 14/4/4
f 6/6/6 16/15/15 17/35/35 7/7/7
f 19/10/10 29/40/40 30/41/41 20/11/11
f 120/42/42 12/43/43 13/3/3 121/2/2
f 15/14/14 25/44/44 26/45/45 16/15/15
f 48/26/26 58/46/46 59/47/47 49/48/48
f 68/49/49 67/50/50 77/51/51 78/52/52
f 122/53/27 14/4/4 24/39/39
f 5/13/13 85/54/29 15/14/14
f 24/39/39 23/38/38 33/55/53 34/56/54
f 16/15/15 26/45/45 27/57/55 17/35/35
f 29/40/40 39/58/56 40/59/57 30/41/41
f 12/43/43 22/60/58 23/38/38 13/3/3
f 86/61/59 96/62/60 97/63/61 87/64/62
f 18/34/34 28/65/63 29/40/40 19/10/10
f 71/66/64 81/67/65 82/68/66 72/69/67
f 122/70/27 24/39/39 34/56/54
f 15/14/14 85/71/29 25/44/44
f 27/57/55 37/24/24 38/23/23 28/65/63
f 28/65/63 38/23/23 39/58/56 29/40/40
f 32/72/68 42/33/33 43/73/69 33/55/53
f 95/74/70 94/75/71 104/76/72 105/77/73
f 41/30/30 40/59/57 50/78/74 51/31/31
f 32/72/68 31/79/75 41/30/30 42/33/33
f 122/80/27 34/56/54 44/81/76
f 25/44/44 85/82/29 35/83/77
f 117/8/8 7/7/7 8/21/21 2/20/20
f 30/41/41 40/59/57 41/30/30 31/79/75
f 75/17/17 86/84/59 87/85/62 76/18/18
f 22/60/58 32/72/68 33/55/53 23/38/38
f 39/58/56 49/48/48 50/78/74 40/59/57
f 38/23/23 48/26/26 49/48/48 39/58/56
f 57/86/78 67/50/50 68/49/49 58/46/46
f 122/87/27 44/81/76 54/88/79
f 35/83/77 85/89/29 45/90/80
f 42/33/33 52/32/32 53/91/81 43/73/69
f 68/49/49 69/92/82 59/47/47 58/46/46
f 43/73/69 53/91/81 54/88/79 44/81/76
f 36/93/83 46/94/84 47/25/25 37/24/24
f 49/48/48 59/47/47 60/95/85 50/78/74
f 53/91/81 52/32/32 62/96/86 63/97/87
f 46/94/84 45/90/80 55/98/88 56/99/89
f 45/90/80 85/100/29 55/98/88
f 48/26/26 47/25/25 57/86/78 58/46/46
f 51/31/31 50/78/74 60/95/85 61/101/90
f 53/91/81 63/97/87 64/102/91 54/88/79
f 47/25/25 46/94/84 56/99/89 57/86/78
f 59/47/47 69/92/82 70/103/92 60/95/85
f 62/96/86 72/69/67 73/104/93 63/97/87
f 55/98/88 65/16/16 66/19/19 56/99/89
f 81/67/65 80/105/94 91/106/95 92/107/96
f 78/52/52 77/51/51 88/108/97 89/109/98
f 122/110/27 54/88/79 64/102/91
f 64/102/91 63/97/87 73/104/93 74/111/99
f 57/86/78 56/99/89 66/19/19 67/50/50
f 69/92/82 79/112/100 80/105/94 70/103/92
f 66/19/19 76/18/18 77/51/51 67/50/50
f 25/44/44 35/83/77 36/93/83 26/45/45
f 89/113/98 99/114/101 100/115/102 90/116/103
f 71/66/64 72/69/67 62/96/86 61/101/90
f 122/117/27 64/102/91 74/111/99
f 55/98/88 85/118/29 65/16/16
f 92/119/96 102/120/104 103/121/105 93/122/106
f 79/112/100 90/123/103 91/106/95 80/105/94
f 72/69/67 82/68/66 83/124/107 73/104/93
f 115/125/108 114/126/109 121/2/2 4/1/1
f 102/120/104 101/127/110 111/128/111 112/129/112
f 99/114/101 98/130/113 108/131/114 109/132/115
f 122/133/27 74/111/99 84/134/116
f 65/16/16 85/135/29 75/17/17
f 102/120/104 112/129/112 113/136/117 103/121/105
f 99/114/101 109/132/115 110/137/118 100/115/102
f 106/138/119 1/28/28 116/5/5 107/139/120
f 83/124/107 82/68/66 93/140/106 94/141/71
f 78/52/52 89/109/98 90/123/103 79/112/100
f 81/67/65 92/107/96 93/140/106 82/68/66
f 122/142/27 84/134/116 95/143/70
f 75/17/17 85/144/29 86/84/59
f 109/132/115 108/131/114 117/8/8 2/20/20
f 20/11/11 30/41/41 31/79/75 21/37/37
f 1/28/28 5/13/13 6/6/6 116/5/5
f 77/51/51 76/18/18 87/85/62 88/108/97
f 90/116/103 100/115/102 101/127/110 91/145/95
f 93/122/106 103/121/105 104/76/72 94/75/71
f 73/104/93 83/124/107 84/134/116 74/111/99
f 122/146/27 95/74/70 105/77/73
f 86/61/59 85/147/29 96/62/60
f 88/148/97 98/130/113 99/114/101 89/113/98
f 92/119/96 91/145/95 101/127/110 102/120/104
f 105/77/73 104/76/72 114/126/109 115/125/108
f 88/148/97 87/64/62 97/63/61 98/130/113
f 100/115/102 110/137/118 111/128/111 101/127/110
f 103/121/105 113/136/117 114/126/109 104/76/72
f 96/62/60 106/138/119 107/139/120 97/63/61
f 68/49/49 78/52/52 79/112/100 69/92/82
f 3/149/121 11/36/36 12/43/43 120/42/42
f 71/66/64 70/103/92 80/105/94 81/67/65
f 84/134/116 83/124/107 94/141/71 95/143/70
f 97/63/61 107/139/120 108/131/114 98/130/113
f 110/137/118 118/22/22 119/150/122 111/128/111
f 108/131/114 107/139/120 116/5/5 117/8/8
f 35/83/77 45/90/80 46/94/84 36/93/83
f 112/129/112 111/128/111 119/150/122 3/149/121
f 17/35/35 27/57/55 28/65/63 18/34/34
f 122/151/27 105/77/73 115/125/108
f 96/62/60 85/152/29 106/138/119
f 21/37/37 31/79/75 32/72/68 22/60/58
f 119/150/122 10/12/12 11/36/36 3/149/121
f 114/126/109 113/136/117 120/42/42 121/2/2
f 109/132/115 2/20/20 118/22/22 110/137/118
f 112/129/112 3/149/121 120/42/42 113/136/117
f 122/153/27 115/125/108 4/1/1
f 106/138/119 85/154/29 1/28/28
f 11/36/36 21/37/37 22/60/58 12/43/43
f 51/31/31 61/101/90 62/96/86 52/32/32
f 33/55/53 43/73/69 44/81/76 34/56/54
f 26/45/45 36/93/83 37/24/24 27/57/55
f 60/95/85 70/103/92 71/66/64 61/101/90
f 118/22/22 9/9/9 10/12/12 119/150/122
