# Blender 4.0.2
# www.blender.org
mtllib cube.mtl
o cube
v -0.500000 -0.500000 0.500000 1.0000 1.0000 1.0000
v -0.500000 0.500000 0.500000 1.0000 1.0000 1.0000
v -0.500000 -0.500000 -0.500000 1.0000 1.0000 1.0000
v -0.500000 0.500000 -0.500000 1.0000 1.0000 1.0000
v 0.500000 -0.500000 0.500000 1.0000 1.0000 1.0000
v 0.500000 0.500000 0.500000 1.0000 1.0000 1.0000
v 0.500000 -0.500000 -0.500000 1.0000 1.0000 1.0000
v 0.500000 0.500000 -0.500000 1.0000 1.0000 1.0000
vn -1.0000 -0.0000 -0.0000
vn -0.0000 -0.0000 -1.0000
vn 1.0000 -0.0000 -0.0000
vn -0.0000 -0.0000 1.0000
vn -0.0000 -1.0000 -0.0000
vn -0.0000 1.0000 -0.0000
vt -1.000000 0.000000
vt -1.000000 -1.000000
vt 0.000000 -1.000000
vt 0.000000 0.000000
vt -1.000000 1.000000
vt 0.000000 1.000000
vt 1.000000 0.000000
vt 1.000000 -1.000000
vt 1.000000 1.000000
vt 0.000000 1.000000
vt 0.000000 -0.000000
vt 1.000000 -0.000000
vt 0.000000 2.000000
vt -1.000000 2.000000
vt 1.000000 2.000000
vt 1.000000 1.000000
s 0
usemtl red_tile
f 1/1/1 2/2/1 4/3/1 3/4/1
f 3/5/2 4/1/2 8/4/2 7/6/2
f 7/7/3 8/4/3 6/3/3 5/8/3
f 5/9/4 6/10/4 2/11/4 1/12/4
f 3/13/5 7/14/5 5/5/5 1/6/5
f 8/15/6 4/13/6 2/6/6 6/16/6
