# Blender 4.0.2
# www.blender.org
mtllib capsule.mtl
o capsule
v 0.000000 1.785517 -0.100719 1.0000 1.0000 1.0000
v 0.000000 1.591009 -0.325193 1.0000 1.0000 1.0000
v 0.000000 0.208989 -0.325193 1.0000 1.0000 1.0000
v 0.000000 0.014481 -0.100719 1.0000 1.0000 1.0000
v 0.050360 1.785517 -0.087225 1.0000 1.0000 1.0000
v 0.096639 1.743246 -0.167384 1.0000 1.0000 1.0000
v 0.135090 1.676611 -0.233983 1.0000 1.0000 1.0000
v 0.162597 1.591009 -0.281625 1.0000 1.0000 1.0000
v 0.176930 1.493376 -0.306452 1.0000 1.0000 1.0000
v 0.176930 0.306622 -0.306452 1.0000 1.0000 1.0000
v 0.162597 0.208989 -0.281625 1.0000 1.0000 1.0000
v 0.135090 0.123387 -0.233983 1.0000 1.0000 1.0000
v 0.096639 0.056752 -0.167384 1.0000 1.0000 1.0000
v 0.050360 0.014481 -0.087225 1.0000 1.0000 1.0000
v 0.087225 1.785517 -0.050360 1.0000 1.0000 1.0000
v 0.167384 1.743246 -0.096639 1.0000 1.0000 1.0000
v 0.233983 1.676611 -0.135090 1.0000 1.0000 1.0000
v 0.281625 1.591009 -0.162597 1.0000 1.0000 1.0000
v 0.306452 1.493376 -0.176930 1.0000 1.0000 1.0000
v 0.306452 0.306622 -0.176930 1.0000 1.0000 1.0000
v 0.281625 0.208989 -0.162597 1.0000 1.0000 1.0000
v 0.233983 0.123387 -0.135090 1.0000 1.0000 1.0000
v 0.167384 0.056752 -0.096639 1.0000 1.0000 1.0000
v 0.087225 0.014481 -0.050360 1.0000 1.0000 1.0000
v 0.100719 1.785517 0.000000 1.0000 1.0000 1.0000
v 0.193279 1.743246 0.000000 1.0000 1.0000 1.0000
v 0.270180 1.676611 0.000000 1.0000 1.0000 1.0000
v 0.325193 1.591009 0.000000 1.0000 1.0000 1.0000
v 0.353861 1.493376 0.000000 1.0000 1.0000 1.0000
v 0.353861 0.306622 0.000000 1.0000 1.0000 1.0000
v 0.325193 0.208989 0.000000 1.0000 1.0000 1.0000
v 0.270180 0.123387 0.000000 1.0000 1.0000 1.0000
v 0.193279 0.056752 0.000000 1.0000 1.0000 1.0000
v 0.100719 0.014481 0.000000 1.0000 1.0000 1.0000
v 0.087225 1.785517 0.050360 1.0000 1.0000 1.0000
v 0.167384 1.743246 0.096639 1.0000 1.0000 1.0000
v 0.233983 1.676611 0.135090 1.0000 1.0000 1.0000
v 0.281625 1.591009 0.162597 1.0000 1.0000 1.0000
v 0.306452 1.493376 0.176930 1.0000 1.0000 1.0000
v 0.306452 0.306622 0.176930 1.0000 1.0000 1.0000
v 0.281625 0.208989 0.162597 1.0000 1.0000 1.0000
v 0.233983 0.123387 0.135090 1.0000 1.0000 1.0000
v 0.167384 0.056752 0.096639 1.0000 1.0000 1.0000
v 0.087225 0.014481 0.050360 1.0000 1.0000 1.0000
v 0.050360 1.785517 0.087225 1.0000 1.0000 1.0000
v 0.096639 1.743246 0.167384 1.0000 1.0000 1.0000
v 0.135090 1.676611 0.233983 1.0000 1.0000 1.0000
v 0.162596 1.591009 0.281625 1.0000 1.0000 1.0000
v 0.176930 1.493376 0.306452 1.0000 1.0000 1.0000
v 0.176930 0.306622 0.306452 1.0000 1.0000 1.0000
v 0.162596 0.208989 0.281625 1.0000 1.0000 1.0000
v 0.135090 0.123387 0.233983 1.0000 1.0000 1.0000
v 0.096639 0.056752 0.167384 1.0000 1.0000 1.0000
v 0.050360 0.014481 0.087225 1.0000 1.0000 1.0000
v -0.000000 1.785517 0.100719 1.0000 1.0000 1.0000
v 0.000000 1.743246 0.193279 1.0000 1.0000 1.0000
v 0.000000 1.676611 0.270180 1.0000 1.0000 1.0000
v -0.000000 1.591009 0.325193 1.0000 1.0000 1.0000
v 0.000000 1.493376 0.353861 1.0000 1.0000 1.0000
v 0.000000 0.306622 0.353861 1.0000 1.0000 1.0000
v -0.000000 0.208989 0.325193 1.0000 1.0000 1.0000
v 0.000000 0.123387 0.270180 1.0000 1.0000 1.0000
v 0.000000 0.056752 0.193279 1.0000 1.0000 1.0000
v -0.000000 0.014481 0.100719 1.0000 1.0000 1.0000
v -0.050360 1.785517 0.087225 1.0000 1.0000 1.0000
v -0.096639 1.743246 0.167384 1.0000 1.0000 1.0000
v -0.135090 1.676611 0.233983 1.0000 1.0000 1.0000
v -0.162597 1.591009 0.281625 1.0000 1.0000 1.0000
v -0.176930 1.493376 0.306452 1.0000 1.0000 1.0000
v -0.176930 0.306622 0.306452 1.0000 1.0000 1.0000
v -0.162597 0.208989 0.281625 1.0000 1.0000 1.0000
v -0.135090 0.123387 0.233983 1.0000 1.0000 1.0000
v -0.096639 0.056752 0.167384 1.0000 1.0000 1.0000
v -0.050360 0.014481 0.087225 1.0000 1.0000 1.0000
v -0.087225 1.785517 0.050360 1.0000 1.0000 1.0000
v -0.167384 1.743246 0.096639 1.0000 1.0000 1.0000
v -0.233983 1.676611 0.135090 1.0000 1.0000 1.0000
v -0.281625 1.591009 0.162596 1.0000 1.0000 1.0000
v -0.306452 1.493376 0.176930 1.0000 1.0000 1.0000
v -0.306452 0.306622 0.176930 1.0000 1.0000 1.0000
v -0.281625 0.208989 0.162596 1.0000 1.0000 1.0000
v -0.233983 0.123387 0.135090 1.0000 1.0000 1.0000
v -0.167384 0.056752 0.096639 1.0000 1.0000 1.0000
v -0.087225 0.014481 0.050360 1.0000 1.0000 1.0000
v 0.000000 1.799998 0.000000 1.0000 1.0000 1.0000
v -0.100719 1.785517 -0.000000 1.0000 1.0000 1.0000
v -0.193279 1.743246 0.000000 1.0000 1.0000 1.0000
v -0.270180 1.676611 0.000000 1.0000 1.0000 1.0000
v -0.325193 1.591009 -0.000000 1.0000 1.0000 1.0000
v -0.353861 1.493376 0.000000 1.0000 1.0000 1.0000
v -0.353861 0.306622 0.000000 1.0000 1.0000 1.0000
v -0.325193 0.208989 -0.000000 1.0000 1.0000 1.0000
v -0.270180 0.123387 0.000000 1.0000 1.0000 1.0000
v -0.193279 0.056752 0.000000 1.0000 1.0000 1.0000
v -0.100719 0.014481 -0.000000 1.0000 1.0000 1.0000
v -0.087225 1.785517 -0.050360 1.0000 1.0000 1.0000
v -0.167384 1.743246 -0.096639 1.0000 1.0000 1.0000
v -0.233983 1.676611 -0.135090 1.0000 1.0000 1.0000
v -0.281625 1.591009 -0.162597 1.0000 1.0000 1.0000
v -0.306452 1.493376 -0.176930 1.0000 1.0000 1.0000
v -0.306452 0.306622 -0.176930 1.0000 1.0000 1.0000
v -0.281625 0.208989 -0.162597 1.0000 1.0000 1.0000
v -0.233983 0.123387 -0.135090 1.0000 1.0000 1.0000
v -0.167384 0.056752 -0.096639 1.0000 1.0000 1.0000
v -0.087225 0.014481 -0.050360 1.0000 1.0000 1.0000
v -0.050360 1.785517 -0.087225 1.0000 1.0000 1.0000
v -0.096639 1.743246 -0.167384 1.0000 1.0000 1.0000
v -0.135090 1.676611 -0.233983 1.0000 1.0000 1.0000
v -0.162596 1.591009 -0.281625 1.0000 1.0000 1.0000
v -0.176930 1.493376 -0.306452 1.0000 1.0000 1.0000
v -0.176930 0.306622 -0.306452 1.0000 1.0000 1.0000
v -0.162596 0.208989 -0.281625 1.0000 1.0000 1.0000
v -0.135090 0.123387 -0.233983 1.0000 1.0000 1.0000
v -0.096639 0.056752 -0.167384 1.0000 1.0000 1.0000
v -0.050360 0.014481 -0.087225 1.0000 1.0000 1.0000
v 0.000000 1.743246 -0.193279 1.0000 1.0000 1.0000
v 0.000000 1.676611 -0.270180 1.0000 1.0000 1.0000
v 0.000000 1.493376 -0.353861 1.0000 1.0000 1.0000
v 0.000000 0.306622 -0.353861 1.0000 1.0000 1.0000
v 0.000000 0.123387 -0.270180 1.0000 1.0000 1.0000
v 0.000000 0.056752 -0.193279 1.0000 1.0000 1.0000
v 0.000000 0.000000 0.000000 1.0000 1.0000 1.0000
vn 0.1516 -0.9529 0.2626
vn 0.2785 -0.8305 0.4823
vn -0.0000 -0.8305 0.5570
vn -0.0000 -0.9529 0.3033
vn 0.5570 0.8305 -0.0000
vn 0.4823 0.8305 0.2785
vn 0.6629 0.6434 0.3828
vn 0.7655 0.6434 -0.0000
vn 0.4951 0.1391 -0.8576
vn 0.8576 0.1391 -0.4951
vn 0.8576 -0.1391 -0.4951
vn 0.4951 -0.1391 -0.8576
vn -0.4823 0.8305 0.2785
vn -0.5569 0.8305 -0.0000
vn -0.7655 0.6434 -0.0000
vn -0.6629 0.6434 0.3828
vn 0.2626 0.9529 0.1516
vn 0.1516 0.9529 0.2626
vn 0.2785 0.8305 0.4823
vn 0.4568 -0.4068 0.7911
vn 0.4951 -0.1391 0.8576
vn -0.0000 -0.1391 0.9903
vn -0.0000 -0.4068 0.9135
vn 0.3828 -0.6434 -0.6629
vn 0.4568 -0.4068 -0.7911
vn 0.7911 -0.4068 -0.4568
vn 0.6629 -0.6434 -0.3828
vn -0.0000 -1.0000 -0.0000
vn -0.0000 -0.9529 -0.3033
vn 0.1516 -0.9529 -0.2626
vn -0.0000 0.9529 -0.3033
vn -0.0000 1.0000 -0.0000
vn 0.1516 0.9529 -0.2626
vn -0.4568 -0.4068 0.7911
vn -0.7911 -0.4068 0.4568
vn -0.6629 -0.6434 0.3828
vn -0.3828 -0.6434 0.6629
vn 0.7911 0.4068 0.4568
vn 0.4568 0.4068 0.7911
vn 0.4951 0.1391 0.8576
vn 0.8576 0.1391 0.4951
vn 0.2626 0.9529 -0.1516
vn -0.0000 -0.4068 -0.9135
vn -0.0000 -0.6434 -0.7655
vn -0.8576 -0.1391 0.4951
vn -0.9903 -0.1391 -0.0000
vn -0.9135 -0.4068 -0.0000
vn -0.1516 -0.9529 0.2626
vn -0.2785 -0.8305 0.4823
vn -0.4823 -0.8305 0.2785
vn -0.2626 -0.9529 0.1516
vn 0.2785 0.8305 -0.4823
vn 0.4823 0.8305 -0.2785
vn 0.6629 0.6434 -0.3828
vn 0.3828 0.6434 -0.6629
vn 0.8576 -0.1391 0.4951
vn 0.7655 -0.6434 -0.0000
vn 0.5570 -0.8305 -0.0000
vn 0.4823 -0.8305 -0.2785
vn -0.3033 0.9529 -0.0000
vn -0.2626 0.9529 -0.1516
vn -0.4823 0.8305 -0.2785
vn 0.4568 0.4068 -0.7911
vn 0.7911 0.4068 -0.4568
vn -0.4568 -0.4068 -0.7911
vn -0.3828 -0.6434 -0.6629
vn 0.2626 -0.9529 -0.1516
vn 0.3033 -0.9529 -0.0000
vn 0.6629 -0.6434 0.3828
vn 0.4823 -0.8305 0.2785
vn 0.9903 0.1391 -0.0000
vn 0.9903 -0.1391 -0.0000
vn -0.6629 0.6434 -0.3828
vn -0.2626 0.9529 0.1516
vn -0.4951 -0.1391 0.8576
vn -0.7911 0.4068 -0.4568
vn -0.3828 0.6434 -0.6629
vn -0.4568 0.4068 -0.7911
vn 0.3033 0.9529 -0.0000
vn 0.3828 0.6434 0.6629
vn -0.0000 0.6434 0.7655
vn -0.0000 0.4068 0.9135
vn 0.9135 -0.4068 -0.0000
vn 0.7911 -0.4068 0.4568
vn -0.8576 0.1391 0.4951
vn -0.9903 0.1391 -0.0000
vn 0.3828 -0.6434 0.6629
vn -0.0000 -0.6434 0.7655
vn -0.3033 -0.9529 -0.0000
vn -0.5570 -0.8305 -0.0000
vn -0.4823 -0.8305 -0.2785
vn -0.2626 -0.9529 -0.1516
vn 0.2626 -0.9529 0.1516
vn -0.4568 0.4068 0.7911
vn -0.3828 0.6434 0.6629
vn -0.7911 0.4068 0.4568
vn -0.7655 -0.6434 -0.0000
vn -0.7911 -0.4068 -0.4568
vn -0.8576 -0.1391 -0.4951
vn -0.4951 -0.1391 -0.8576
vn 0.9135 0.4068 -0.0000
vn -0.4951 0.1391 -0.8576
vn -0.8576 0.1391 -0.4951
vn -0.0000 0.8305 -0.5570
vn -0.2785 0.8305 0.4823
vn -0.0000 0.1391 0.9903
vn -0.6629 -0.6434 -0.3828
vn -0.2785 -0.8305 -0.4823
vn -0.0000 0.9529 0.3033
vn -0.4951 0.1391 0.8576
vn -0.0000 0.8305 0.5570
vn -0.1516 0.9529 -0.2626
vn -0.2785 0.8305 -0.4823
vn -0.0000 -0.8305 -0.5570
vn -0.0000 0.6434 -0.7655
vn -0.1516 -0.9529 -0.2626
vn -0.1516 0.9529 0.2626
vn -0.0000 -0.1391 -0.9903
vn -0.9135 0.4068 -0.0000
vn 0.2785 -0.8305 -0.4823
vn -0.0000 0.4068 -0.9135
vn -0.0000 0.1391 -0.9903
vt 0.583333 0.090909
vt 0.583333 0.181818
vt 0.500000 0.181818
vt 0.500000 0.090909
vt 0.750000 0.818182
vt 0.666667 0.818182
vt 0.666667 0.727273
vt 0.750000 0.727273
vt 0.916667 0.545455
vt 0.833333 0.545455
vt 0.833333 0.454545
vt 0.916667 0.454545
vt 0.333333 0.818182
vt 0.250000 0.818182
vt 0.250000 0.727273
vt 0.333333 0.727273
vt 0.666667 0.909091
vt 0.583333 0.909091
vt 0.583333 0.818182
vt 0.583333 0.363636
vt 0.567836 0.136827
vt 0.500000 0.136827
vt 0.500000 0.363636
vt 0.916667 0.272727
vt 0.916667 0.363636
vt 0.833333 0.363636
vt 0.833333 0.272727
vt 0.958333 -0.088588
vt 1.000000 0.090909
vt 0.916667 0.090909
vt 1.000000 0.909091
vt 0.958333 1.086232
vt 0.916667 0.909091
vt 0.416667 0.363636
vt 0.333333 0.363636
vt 0.333333 0.272727
vt 0.416667 0.272727
vt 0.666667 0.636364
vt 0.583333 0.636364
vt 0.567836 0.568251
vt 0.635671 0.568251
vt 0.875000 1.086232
vt 0.833333 0.909091
vt 1.000000 0.363636
vt 1.000000 0.272727
vt 0.364329 0.136827
vt 0.250000 0.454545
vt 0.250000 0.363636
vt 0.416667 0.090909
vt 0.416667 0.181818
vt 0.333333 0.181818
vt 0.333333 0.090909
vt 0.916667 0.818182
vt 0.833333 0.818182
vt 0.833333 0.727273
vt 0.916667 0.727273
vt 0.635671 0.136827
vt 0.750000 0.272727
vt 0.750000 0.181818
vt 0.833333 0.181818
vt 1.250000 0.909091
vt 1.166667 0.909091
vt 1.166667 0.818182
vt 1.250000 0.818182
vt 0.916667 0.636364
vt 0.833333 0.636364
vt 1.083333 0.363636
vt 1.083333 0.272727
vt 0.875000 -0.088588
vt 0.833333 0.090909
vt 0.750000 0.090909
vt 0.666667 0.272727
vt 0.666667 0.181818
vt 0.750000 0.545455
vt 0.750000 0.454545
vt 1.166667 0.727273
vt 1.250000 0.727273
vt 0.333333 0.909091
vt 0.250000 0.909091
vt 0.432164 0.136827
vt 1.166667 0.636364
vt 1.083333 0.727273
vt 1.083333 0.636364
vt 0.791667 -0.088588
vt 0.791667 1.086232
vt 0.750000 0.909091
vt 0.583333 0.727273
vt 0.500000 0.727273
vt 0.500000 0.636364
vt 0.750000 0.363636
vt 0.666667 0.363636
vt 0.364329 0.568251
vt 0.250000 0.545455
vt 0.583333 0.272727
vt 0.500000 0.272727
vt 1.250000 0.090909
vt 1.250000 0.181818
vt 1.166667 0.181818
vt 1.166667 0.090909
vt 0.708333 -0.088588
vt 0.666667 0.090909
vt 0.708333 1.086232
vt 0.416667 0.636364
vt 0.416667 0.727273
vt 0.333333 0.636364
vt 0.250000 0.272727
vt 0.250000 0.181818
vt 1.166667 0.363636
vt 1.166667 0.454545
vt 1.083333 0.454545
vt 0.625000 -0.088588
vt 0.625000 1.086232
vt 0.750000 0.636364
vt 1.083333 0.545455
vt 1.166667 0.545455
vt 1.000000 0.818182
vt 0.416667 0.818182
vt 0.500000 0.568251
vt 1.166667 0.272727
vt 1.083333 0.181818
vt 0.541667 -0.088588
vt 0.541667 1.086232
vt 0.500000 0.909091
vt 1.250000 0.363636
vt 1.250000 0.454545
vt 0.432164 0.568251
vt 0.500000 0.818182
vt 1.083333 0.909091
vt 1.083333 0.818182
vt 1.000000 0.181818
vt 1.000000 0.727273
vt 1.083333 0.090909
vt 0.458333 -0.088588
vt 0.458333 1.086232
vt 0.416667 0.909091
vt 1.000000 0.454545
vt 0.375000 -0.088588
vt 0.375000 1.086232
vt 1.250000 0.636364
vt 0.916667 0.181818
vt 1.250000 0.272727
vt 0.291667 -0.088588
vt 0.250000 0.090909
vt 0.291667 1.086232
vt 1.250000 0.545455
vt 1.208333 -0.088588
vt 1.208333 1.086232
vt 1.000000 0.636364
vt 1.000000 0.545455
vt 0.250000 0.636364
vt 1.125000 -0.088588
vt 1.125000 1.086232
vt 1.041667 -0.088588
vt 1.041667 1.086232
s 1
usemtl capsule_skin
f 54/1/1 53/2/2 63/3/3 64/4/4
f 26/5/5 36/6/6 37/7/7 27/8/8
f 9/9/9 19/10/10 20/11/11 10/12/12
f 76/13/13 87/14/14 88/15/15 77/16/16
f 35/17/17 45/18/18 46/19/19 36/6/6
f 51/20/20 50/21/21 60/22/22 61/23/23
f 12/24/24 11/25/25 21/26/26 22/27/27
f 122/28/28 4/29/29 14/30/30
f 1/31/31 85/32/32 5/33/33
f 71/34/34 81/35/35 82/36/36 72/37/37
f 38/38/38 48/39/39 49/40/40 39/41/41
f 5/33/33 85/42/32 15/43/42
f 3/44/43 11/25/25 12/24/24 120/45/44
f 81/35/35 80/46/45 91/47/46 92/48/47
f 74/49/48 73/50/49 83/51/50 84/52/51
f 6/53/52 16/54/53 17/55/54 7/56/55
f 39/41/41 49/40/40 50/21/21 40/57/56
f 22/27/27 32/58/57 33/59/58 23/60/59
f 86/61/60 96/62/61 97/63/62 87/64/14
f 9/9/9 8/65/63 18/66/64 19/10/10
f 112/67/65 3/44/43 120/45/44 113/68/66
f 122/69/28 14/30/30 24/70/67
f 24/70/67 23/60/59 33/59/58 34/71/68
f 33/59/58 32/58/57 42/72/69 43/73/70
f 29/74/71 39/41/41 40/57/56 30/75/72
f 87/64/14 97/63/62 98/76/73 88/77/15
f 75/78/74 86/79/60 87/14/14 76/13/13
f 61/23/23 60/22/22 70/80/75 71/34/34
f 99/81/76 98/76/73 108/82/77 109/83/78
f 122/84/28 24/70/67 34/71/68
f 15/43/42 85/85/32 25/86/79
f 47/87/80 57/88/81 58/89/82 48/39/39
f 31/90/83 30/75/72 40/57/56 41/91/84
f 79/92/85 90/93/86 91/47/46 80/46/45
f 52/94/87 62/95/88 63/3/3 53/2/2
f 95/96/89 94/97/90 104/98/91 105/99/92
f 11/25/25 10/12/12 20/11/11 21/26/26
f 31/90/83 41/91/84 42/72/69 32/58/57
f 122/100/28 34/71/68 44/101/93
f 25/86/79 85/102/32 35/17/17
f 68/103/94 67/104/95 77/16/16 78/105/96
f 41/91/84 40/57/56 50/21/21 51/20/20
f 63/3/3 73/50/49 74/49/48 64/4/4
f 82/36/36 93/106/97 94/107/90 83/51/50
f 102/108/98 101/109/99 111/110/100 112/67/65
f 58/89/82 57/88/81 67/104/95 68/103/94
f 122/111/28 44/101/93 54/1/1
f 35/17/17 85/112/32 45/18/18
f 18/66/64 17/55/54 27/8/8 28/113/101
f 99/81/76 109/83/78 110/114/102 100/115/103
f 1/31/31 5/33/33 6/53/52 116/116/104
f 67/104/95 66/117/105 76/13/13 77/16/16
f 49/40/40 59/118/106 60/22/22 50/21/21
f 104/98/91 103/119/107 113/68/66 114/120/108
f 25/86/79 35/17/17 36/6/6 26/5/5
f 122/121/28 54/1/1 64/4/4
f 45/18/18 85/122/32 55/123/109
f 21/26/26 31/90/83 32/58/57 22/27/27
f 92/124/47 91/125/46 101/109/99 102/108/98
f 44/101/93 43/73/70 53/2/2 54/1/1
f 62/95/88 72/37/37 73/50/49 63/3/3
f 59/118/106 69/126/110 70/80/75 60/22/22
f 56/127/111 66/117/105 67/104/95 57/88/81
f 96/62/61 106/128/112 107/129/113 97/63/62
f 18/66/64 28/113/101 29/74/71 19/10/10
f 7/56/55 17/55/54 18/66/64 8/65/63
f 71/34/34 70/80/75 80/46/45 81/35/35
f 6/53/52 5/33/33 15/43/42 16/54/53
f 113/68/66 120/45/44 121/130/114 114/120/108
f 69/126/110 79/92/85 80/46/45 70/80/75
f 107/129/113 116/116/104 117/131/115 108/82/77
f 105/99/92 104/98/91 114/120/108 115/132/116
f 58/89/82 68/103/94 69/126/110 59/118/106
f 61/23/23 71/34/34 72/37/37 62/95/88
f 122/133/28 64/4/4 74/49/48
f 55/123/109 85/134/32 65/135/117
f 43/73/70 42/72/69 52/94/87 53/2/2
f 100/115/103 110/114/102 111/110/100 101/109/99
f 97/63/62 107/129/113 108/82/77 98/76/73
f 65/135/117 75/78/74 76/13/13 66/117/105
f 112/67/65 111/110/100 119/136/118 3/44/43
f 51/20/20 61/23/23 62/95/88 52/94/87
f 122/137/28 74/49/48 84/52/51
f 65/135/117 85/138/32 75/78/74
f 102/108/98 112/67/65 113/68/66 103/119/107
f 88/77/15 98/76/73 99/81/76 89/139/119
f 106/128/112 1/31/31 116/116/104 107/129/113
f 12/24/24 22/27/27 23/60/59 13/140/120
f 15/43/42 25/86/79 26/5/5 16/54/53
f 28/113/101 38/38/38 39/41/41 29/74/71
f 92/124/47 102/108/98 103/119/107 93/141/97
f 122/142/28 84/52/51 95/143/89
f 75/78/74 85/144/32 86/79/60
f 27/8/8 37/7/7 38/38/38 28/113/101
f 48/39/39 58/89/82 59/118/106 49/40/40
f 34/71/68 33/59/58 43/73/70 44/101/93
f 94/97/90 93/141/97 103/119/107 104/98/91
f 90/145/86 100/115/103 101/109/99 91/125/46
f 16/54/53 26/5/5 27/8/8 17/55/54
f 81/35/35 92/48/47 93/106/97 82/36/36
f 122/146/28 95/96/89 105/99/92
f 86/61/60 85/147/32 96/62/61
f 109/83/78 108/82/77 117/131/115 2/148/121
f 20/11/11 30/75/72 31/90/83 21/26/26
f 121/130/114 13/140/120 14/30/30 4/29/29
f 120/45/44 12/24/24 13/140/120 121/130/114
f 119/136/118 10/12/12 11/25/25 3/44/43
f 84/52/51 83/51/50 94/107/90 95/143/89
f 13/140/120 23/60/59 24/70/67 14/30/30
f 2/148/121 8/65/63 9/9/9 118/149/122
f 89/139/119 99/81/76 100/115/103 90/145/86
f 114/120/108 121/130/114 4/29/29 115/132/116
f 72/37/37 82/36/36 83/51/50 73/50/49
f 110/114/102 118/149/122 119/136/118 111/110/100
f 36/6/6 46/19/19 47/87/80 37/7/7
f 55/123/109 65/135/117 66/117/105 56/127/111
f 78/105/96 89/150/119 90/93/86 79/92/85
f 37/7/7 47/87/80 48/39/39 38/38/38
f 122/151/28 105/99/92 115/132/116
f 96/62/61 85/152/32 106/128/112
f 41/91/84 51/20/20 52/94/87 42/72/69
f 46/19/19 56/127/111 57/88/81 47/87/80
f 19/10/10 29/74/71 30/75/72 20/11/11
f 117/131/115 116/116/104 6/53/52 7/56/55
f 45/18/18 55/123/109 56/127/111 46/19/19
f 109/83/78 2/148/121 118/149/122 110/114/102
f 117/131/115 7/56/55 8/65/63 2/148/121
f 122/153/28 115/132/116 4/29/29
f 106/128/112 85/154/32 1/31/31
f 78/105/96 77/16/16 88/15/15 89/150/119
f 68/103/94 78/105/96 79/92/85 69/126/110
f 118/149/122 9/9/9 10/12/12 119/136/118
