# Blender 4.0.2
# www.blender.org
mtllib ps_logo.mtl
o blue
v 1.477268 0.146609 0.465604
v 1.312268 0.146609 0.639604
v 0.844268 0.146609 0.171604
v 0.031267 0.146609 -0.644396
v 0.199267 0.146609 -0.812396
v 0.532268 0.146609 -0.143396
v -0.274733 0.146609 -0.950396
v -0.763733 0.146608 -1.439396
v -0.418733 0.146608 -1.784396
v 1.093268 0.146609 -1.034396
v 1.084267 0.146609 -0.404396
v 0.961267 0.146609 -0.458396
v 0.814267 0.146609 -0.404396
v 0.700267 0.146609 -0.311396
v 1.012267 0.146609 0.003604
v 1.129267 0.146609 -0.155396
v 1.141267 0.146609 -0.326396
v 0.883267 0.146609 -1.097396
v 0.676268 0.146609 -1.088395
v 0.424267 0.146609 -0.983396
v 0.070267 0.146608 -1.295396
v 1.627268 0.146609 0.210604
v 1.702268 0.146609 -0.062396
v 1.711267 0.146609 -0.143396
v 1.669268 0.146609 -0.425396
v 1.510267 0.146609 -0.698396
v 1.351268 0.146609 -0.857396
v 1.477268 0.008609 0.465604
v 1.312268 0.008609 0.639604
v 0.844268 0.008609 0.171604
v 0.031267 0.008609 -0.644396
v 0.199267 0.008609 -0.812396
v 0.532268 0.008609 -0.143396
v -0.274733 0.008609 -0.950396
v -0.763733 0.008608 -1.439395
v -0.418733 0.008608 -1.784395
v 1.093268 0.008609 -1.034395
v 1.084267 0.008609 -0.404396
v 0.961267 0.008609 -0.458396
v 0.814267 0.008609 -0.404396
v 0.700267 0.008609 -0.311396
v 1.012267 0.008609 0.003604
v 1.129267 0.008609 -0.155396
v 1.141267 0.008609 -0.326396
v 0.883267 0.008609 -1.097395
v 0.676268 0.008609 -1.088395
v 0.424267 0.008609 -0.983396
v 0.070267 0.008608 -1.295395
v 1.627268 0.008609 0.210604
v 1.702268 0.008609 -0.062396
v 1.711267 0.008609 -0.143396
v 1.669268 0.008609 -0.425395
v 1.510267 0.008609 -0.698396
v 1.351268 0.008609 -0.857396
vn -0.0000 -1.0000 -0.0000
vn -0.0000 1.0000 -0.0000
vn 0.7256 -0.0000 0.6881
vn -0.7071 -0.0000 -0.7071
vn -0.0434 -0.0000 -0.9991
vn 0.7071 -0.0000 0.7071
vn -0.6051 -0.0000 -0.7962
vn 0.3448 -0.0000 0.9387
vn -0.9975 -0.0000 -0.0700
vn 0.9643 -0.0000 0.2649
vn 0.9939 -0.0000 0.1104
vn 0.8641 -0.0000 -0.5033
vn -0.4020 -0.0000 0.9156
vn -0.8054 -0.0000 -0.5927
vn 0.2873 -0.0000 -0.9578
vn -0.3846 -0.0000 -0.9231
vn 0.7071 -0.0000 -0.7071
vn 0.6321 -0.0000 0.7749
vn 0.9891 -0.0000 -0.1473
vn -0.7071 -0.0000 0.7071
vn -0.8074 -0.0000 0.5900
vn 0.8619 -0.0000 0.5070
vn 0.5657 -0.0000 -0.8246
vt 0.000000 0.000000
s 0
usemtl blue
f 32/1/1 47/1/1 40/1/1 41/1/1
f 49/1/1 28/1/1 42/1/1 43/1/1
f 13/1/2 12/1/2 19/1/2 20/1/2
f 30/1/1 42/1/1 28/1/1 29/1/1
f 48/1/1 34/1/1 35/1/1 36/1/1
f 18/1/2 12/1/2 10/1/2
f 46/1/1 39/1/1 40/1/1 47/1/1
f 54/1/1 38/1/1 39/1/1 37/1/1
f 17/1/2 25/1/2 26/1/2
f 24/1/2 25/1/2 17/1/2
f 12/1/2 18/1/2 19/1/2
f 38/1/1 54/1/1 53/1/1 44/1/1
f 23/1/2 16/1/2 22/1/2
f 1/1/2 15/1/2 3/1/2 2/1/2
f 5/1/2 14/1/2 13/1/2 20/1/2
f 15/1/2 1/1/2 22/1/2 16/1/2
f 5/1/2 4/1/2 6/1/2 14/1/2
f 33/1/1 31/1/1 32/1/1 41/1/1
f 26/1/2 27/1/2 11/1/2 17/1/2
f 45/1/1 37/1/1 39/1/1
f 50/1/1 43/1/1 44/1/1 51/1/1
f 17/1/2 16/1/2 23/1/2 24/1/2
f 44/1/1 53/1/1 52/1/1
f 51/1/1 44/1/1 52/1/1
f 39/1/1 46/1/1 45/1/1
f 12/1/2 11/1/2 27/1/2 10/1/2
f 50/1/1 49/1/1 43/1/1
f 1/1/3 2/1/3 29/1/3 28/1/3
f 4/1/4 5/1/4 32/1/4 31/1/4
f 8/1/4 9/1/4 36/1/4 35/1/4
f 19/1/5 18/1/5 45/1/5 46/1/5
f 21/1/6 7/1/6 34/1/6 48/1/6
f 5/1/7 20/1/7 47/1/7 32/1/7
f 12/1/8 13/1/8 40/1/8 39/1/8
f 16/1/9 17/1/9 44/1/9 43/1/9
f 23/1/10 22/1/10 49/1/10 50/1/10
f 24/1/11 23/1/11 50/1/11 51/1/11
f 26/1/12 25/1/12 52/1/12 53/1/12
f 11/1/13 12/1/13 39/1/13 38/1/13
f 15/1/14 16/1/14 43/1/14 42/1/14
f 18/1/15 10/1/15 37/1/15 45/1/15
f 20/1/16 19/1/16 46/1/16 47/1/16
f 9/1/17 21/1/17 48/1/17 36/1/17
f 13/1/18 14/1/18 41/1/18 40/1/18
f 25/1/19 24/1/19 51/1/19 52/1/19
f 2/1/20 3/1/20 30/1/20 29/1/20
f 27/1/17 26/1/17 53/1/17 54/1/17
f 17/1/21 11/1/21 38/1/21 44/1/21
f 3/1/4 15/1/4 42/1/4 30/1/4
f 14/1/6 6/1/6 33/1/6 41/1/6
f 22/1/22 1/1/22 28/1/22 49/1/22
f 10/1/23 27/1/23 54/1/23 37/1/23
f 7/1/20 8/1/20 35/1/20 34/1/20
f 6/1/20 4/1/20 31/1/20 33/1/20
f 21/1/2 9/1/2 8/1/2 7/1/2
o green
v 0.526268 0.146609 1.434604
v 0.052267 0.146609 0.963604
v 0.844268 0.146609 0.171604
v 1.312268 0.146609 0.639604
v 0.532268 0.146609 -0.143396
v -0.262733 0.146609 0.645604
v 0.031267 0.146609 -0.644396
v -0.763733 0.146609 0.147604
v -1.066733 0.146609 -0.158396
v -0.274733 0.146609 -0.950396
v -1.555733 0.146609 -0.647396
v -0.763733 0.146608 -1.439396
v 0.526268 0.008609 1.434604
v 0.052267 0.008609 0.963604
v 0.844268 0.008609 0.171604
v 1.312268 0.008609 0.639604
v 0.532268 0.008609 -0.143396
v -0.262733 0.008609 0.645604
v 0.031267 0.008609 -0.644396
v -0.763733 0.008609 0.147604
v -1.066733 0.008609 -0.158396
v -0.274733 0.008609 -0.950396
v -1.555733 0.008609 -0.647396
v -0.763733 0.008608 -1.439395
vn -0.0000 -1.0000 -0.0000
vn -0.0000 1.0000 -0.0000
vn -0.7071 -0.0000 -0.7071
vn 0.7044 -0.0000 0.7098
vn 0.7071 -0.0000 -0.7071
vn -0.7050 -0.0000 0.7092
vn -0.7058 -0.0000 -0.7084
vn -0.7071 -0.0000 0.7071
vn 0.7111 -0.0000 0.7031
vn 0.7071 -0.0000 0.7071
vn -0.7049 -0.0000 0.7093
vt 0.000000 0.000000
s 0
usemtl green
f 69/2/24 70/2/24 67/2/24 68/2/24
f 74/2/24 73/2/24 71/2/24 72/2/24
f 77/2/24 78/2/24 76/2/24 75/2/24
f 62/2/25 60/2/25 59/2/25 61/2/25
f 55/2/25 58/2/25 57/2/25 56/2/25
f 56/2/26 57/2/26 69/2/26 68/2/26
f 59/2/27 60/2/27 72/2/27 71/2/27
f 65/2/26 66/2/26 78/2/26 77/2/26
f 57/2/28 58/2/28 70/2/28 69/2/28
f 60/2/29 62/2/29 74/2/29 72/2/29
f 61/2/28 59/2/28 71/2/28 73/2/28
f 62/2/30 61/2/30 73/2/30 74/2/30
f 66/2/28 64/2/28 76/2/28 78/2/28
f 63/2/31 65/2/31 77/2/31 75/2/31
f 58/2/32 55/2/32 67/2/32 70/2/32
f 64/2/33 63/2/33 75/2/33 76/2/33
f 55/2/34 56/2/34 68/2/34 67/2/34
f 65/2/25 63/2/25 64/2/25 66/2/25
o red
v 0.221299 2.567594 2.183578
v -0.576702 3.011559 1.385578
v -0.001039 2.570016 1.961235
v 0.383348 1.469819 2.348628
v 0.220429 1.487545 2.182701
v 0.554706 1.523788 2.516984
v 0.851323 2.477545 2.813603
v 0.863489 2.223159 2.825767
v 0.835941 1.943259 2.801220
v 0.554323 2.933545 2.516603
v 0.710323 2.813545 2.672603
v 0.797323 2.675545 2.759603
v 0.386323 2.990545 2.348603
v 0.221350 3.011659 2.183629
v 0.192296 2.672373 2.154566
v 0.152895 2.718282 2.118169
v 0.109265 2.733392 2.071530
v 0.065632 2.718874 2.027902
v 0.026555 2.674211 1.991820
v 0.772976 1.769062 2.735253
v 0.680323 1.631545 2.642603
v -0.000677 0.008545 1.961604
v -0.576677 0.008544 1.385604
v 0.319187 2.567545 2.085739
v -0.478813 3.011544 1.287739
v 0.097187 2.567544 1.863739
v 0.481187 1.469545 2.250740
v 0.319187 1.487545 2.085740
v 0.652187 1.523545 2.418740
v 0.949187 2.477545 2.715739
v 0.961187 2.222545 2.727740
v 0.934187 1.943545 2.703740
v 0.652187 2.933545 2.418739
v 0.808187 2.813545 2.574739
v 0.895187 2.675545 2.661740
v 0.484187 2.990545 2.250739
v 0.319187 3.011545 2.085739
v 0.289187 2.672545 2.055739
v 0.250187 2.717545 2.019739
v 0.208187 2.732545 1.974739
v 0.163187 2.717545 1.929739
v 0.124187 2.672545 1.893739
v 0.871187 1.769545 2.637740
v 0.778187 1.631545 2.544740
v 0.097187 0.008545 1.863740
v -0.478813 0.008544 1.287740
vn -0.7071 -0.0000 0.7071
vn -0.6937 -0.0023 0.7202
vn -0.7019 0.0220 0.7119
vn 0.7072 -0.0019 -0.7070
vn -0.7134 -0.0167 0.7006
vn -0.7085 0.0006 0.7057
vn -0.7072 0.0019 0.7070
vn 0.7071 -0.0000 -0.7071
vn 0.6939 0.0023 -0.7201
vn 0.7085 -0.0012 -0.7057
vn 0.7281 -0.0171 -0.6852
vn 0.7085 -0.0006 -0.7057
vn 0.1542 -0.9756 0.1562
vn 0.7003 -0.1293 0.7021
vn -0.1688 -0.9723 -0.1618
vn 0.4517 -0.7639 0.4609
vn 0.7062 0.0669 0.7048
vn 0.6597 0.3599 0.6597
vn 0.0639 0.9960 0.0633
vn -0.4633 -0.7611 -0.4539
vn 0.6546 -0.3629 0.6632
vn 0.5118 -0.6899 0.5120
vn 0.5278 0.6655 0.5278
vn 0.6249 -0.4640 0.6278
vn 0.3379 0.8785 0.3379
vn 0.1650 0.9724 0.1650
vn 0.7058 0.0001 0.7084
vn 0.1560 -0.9733 0.1681
vn -0.0000 -1.0000 -0.0000
vn -0.0548 -0.9970 -0.0539
vn 0.3668 -0.8551 0.3664
vn -0.7038 0.0006 -0.7104
vn -0.6601 -0.3696 -0.6540
vn -0.7070 -0.0000 -0.7072
vn 0.0003 1.0000 -0.0004
vn -0.7084 0.0010 0.7059
vt 0.000000 0.000000
s 0
usemtl red
f 79/3/35 84/3/35 99/3/35 98/3/35
f 79/3/35 88/3/35 91/3/35 92/3/35
f 88/3/35 79/3/35 90/3/35 89/3/35
f 93/3/36 79/3/36 92/3/36 94/3/36
f 96/3/37 95/3/37 80/3/37 97/3/37
f 107/3/38 105/3/38 106/3/38 102/3/38
f 80/3/39 81/3/39 97/3/39
f 87/3/40 86/3/40 79/3/40 98/3/40
f 84/3/41 79/3/41 83/3/41 82/3/41
f 122/3/42 107/3/42 102/3/42 121/3/42
f 114/3/42 111/3/42 102/3/42 115/3/42
f 111/3/42 112/3/42 113/3/42 102/3/42
f 115/3/43 102/3/43 116/3/43 117/3/43
f 120/3/44 104/3/44 103/3/44 119/3/44
f 119/3/42 103/3/42 115/3/42 118/3/42
f 117/3/45 118/3/45 115/3/45
f 108/3/42 109/3/42 102/3/42 113/3/42
f 102/3/46 109/3/46 110/3/46 121/3/46
f 101/3/35 100/3/35 81/3/35 80/3/35
f 84/3/47 82/3/47 105/3/47 107/3/47
f 86/3/48 87/3/48 110/3/48 109/3/48
f 94/3/49 95/3/49 118/3/49 117/3/49
f 96/3/50 97/3/50 120/3/50 119/3/50
f 85/3/51 86/3/51 109/3/51 108/3/51
f 90/3/52 85/3/52 108/3/52 113/3/52
f 92/3/53 91/3/53 114/3/53 115/3/53
f 93/3/54 94/3/54 117/3/54 116/3/54
f 97/3/55 81/3/55 104/3/55 120/3/55
f 98/3/56 99/3/56 122/3/56 121/3/56
f 89/3/57 90/3/57 113/3/57 112/3/57
f 87/3/58 98/3/58 121/3/58 110/3/58
f 88/3/59 89/3/59 112/3/59 111/3/59
f 91/3/60 88/3/60 111/3/60 114/3/60
f 81/3/61 100/3/61 123/3/61 104/3/61
f 95/3/62 96/3/62 119/3/62 118/3/62
f 100/3/63 101/3/63 124/3/63 123/3/63
f 82/3/64 83/3/64 106/3/64 105/3/64
f 99/3/65 84/3/65 107/3/65 122/3/65
f 83/3/66 79/3/66 102/3/66 106/3/66
f 79/3/67 93/3/67 116/3/67 102/3/67
f 101/3/68 80/3/68 103/3/68 124/3/68
f 80/3/69 92/3/69 115/3/69 103/3/69
f 124/3/42 103/3/42 104/3/42 123/3/42
f 79/3/35 86/3/35 85/3/35 90/3/35
f 94/3/70 92/3/70 80/3/70 95/3/70
o yellow
v 0.526268 0.146609 1.434604
v 0.097267 0.146609 1.863604
v 0.052267 0.146609 0.963604
v -0.934733 0.146609 0.318604
v -0.763733 0.146609 0.147604
v -0.262733 0.146609 0.645604
v -0.436733 0.146609 0.813604
v -1.066733 0.146609 -0.158396
v -1.237733 0.146609 0.012604
v -1.717733 0.146609 -0.464396
v -1.555733 0.146609 -0.647396
v -1.045732 0.146609 0.420604
v -1.378733 0.146609 0.381604
v -1.294733 0.146609 0.456604
v -1.177733 0.146609 0.480604
v -1.345733 0.146609 0.132604
v -1.405733 0.146609 0.267604
v -1.870733 0.146609 -0.206396
v -1.885733 0.146609 0.438604
v -1.945733 0.146609 0.060604
v -1.735733 0.146609 0.681604
v -1.555733 0.146609 0.861604
v -1.288733 0.146609 1.020604
v -1.009732 0.146609 1.068604
v -0.685733 0.146609 0.981604
v -0.373733 0.146609 1.389604
v 0.526268 0.008609 1.434604
v 0.097267 0.008609 1.863604
v 0.052267 0.008609 0.963604
v -0.934733 0.008609 0.318604
v -0.763733 0.008609 0.147604
v -0.262733 0.008609 0.645604
v -0.436733 0.008609 0.813604
v -1.066733 0.008609 -0.158396
v -1.237733 0.008609 0.012604
v -1.717733 0.008609 -0.464395
v -1.555733 0.008609 -0.647396
v -1.045732 0.008609 0.420604
v -1.378733 0.008609 0.381604
v -1.294733 0.008609 0.456604
v -1.177733 0.008609 0.480604
v -1.345733 0.008609 0.132604
v -1.405733 0.008609 0.267604
v -1.870733 0.008609 -0.206396
v -1.885733 0.008609 0.438604
v -1.945733 0.008609 0.060604
v -1.735733 0.008609 0.681604
v -1.555733 0.008609 0.861604
v -1.288733 0.008609 1.020604
v -1.009732 0.008609 1.068604
v -0.685733 0.008609 0.981604
v -0.373733 0.008609 1.389604
vn -0.0000 -1.0000 -0.0000
vn -0.0000 1.0000 -0.0000
vn 0.7071 -0.0000 0.7071
vn -0.7071 -0.0000 -0.7071
vn 0.6946 -0.0000 0.7194
vn -0.7488 -0.0000 -0.6628
vn 0.6660 -0.0000 -0.7459
vn -0.9876 -0.0000 0.1568
vn -0.7071 -0.0000 0.7071
vn -0.5117 -0.0000 0.8592
vn 0.2593 -0.0000 0.9658
vn -0.8509 -0.0000 0.5253
vn 0.5593 -0.0000 0.8290
vn -0.1696 -0.0000 0.9855
vn -0.6766 -0.0000 -0.7363
vn 0.2009 -0.0000 -0.9796
vn 0.7433 -0.0000 0.6690
vn 0.9138 -0.0000 0.4061
vn -0.8601 -0.0000 -0.5101
vn -0.4138 -0.0000 -0.9104
vn 0.9731 -0.0000 -0.2305
vn 0.7071 -0.0000 -0.7071
vn 0.7050 -0.0000 -0.7092
vn -0.9627 -0.0000 -0.2704
vn 0.7049 -0.0000 -0.7093
vn -0.7093 -0.0000 0.7049
vt 0.000000 0.000000
s 0
usemtl yellow
f 176/4/71 153/4/71 151/4/71 152/4/71
f 155/4/71 156/4/71 157/4/71 154/4/71
f 170/4/71 168/4/71 166/4/71 167/4/71
f 175/4/71 162/4/71 154/4/71 157/4/71
f 158/4/71 159/4/71 160/4/71 161/4/71
f 140/4/72 142/4/72 144/4/72 141/4/72
f 173/4/71 172/4/71 164/4/71 165/4/71
f 166/4/71 168/4/71 160/4/71 159/4/71
f 167/4/71 163/4/71 171/4/71 169/4/71
f 162/4/71 175/4/71 174/4/71 165/4/71
f 139/4/72 147/4/72 148/4/72
f 143/4/72 141/4/72 144/4/72
f 131/4/72 130/4/72 129/4/72 128/4/72
f 134/4/72 133/4/72 132/4/72 135/4/72
f 148/4/72 149/4/72 136/4/72 139/4/72
f 140/4/72 133/4/72 134/4/72 142/4/72
f 128/4/72 136/4/72 149/4/72 131/4/72
f 146/4/72 138/4/72 137/4/72 145/4/72
f 141/4/72 143/4/72 145/4/72 137/4/72
f 172/4/71 171/4/71 163/4/71 164/4/71
f 138/4/72 146/4/72 147/4/72 139/4/72
f 165/4/71 174/4/71 173/4/71
f 169/4/71 170/4/71 167/4/71
f 125/4/73 126/4/73 152/4/73 151/4/73
f 128/4/74 129/4/74 155/4/74 154/4/74
f 130/4/75 131/4/75 157/4/75 156/4/75
f 132/4/73 133/4/73 159/4/73 158/4/73
f 134/4/76 135/4/76 161/4/76 160/4/76
f 137/4/77 138/4/77 164/4/77 163/4/77
f 143/4/78 144/4/78 170/4/78 169/4/78
f 146/4/79 145/4/79 171/4/79 172/4/79
f 147/4/80 146/4/80 172/4/80 173/4/80
f 149/4/81 148/4/81 174/4/81 175/4/81
f 145/4/82 143/4/82 169/4/82 171/4/82
f 131/4/83 149/4/83 175/4/83 157/4/83
f 148/4/84 147/4/84 173/4/84 174/4/84
f 136/4/85 128/4/85 154/4/85 162/4/85
f 138/4/86 139/4/86 165/4/86 164/4/86
f 133/4/87 140/4/87 166/4/87 159/4/87
f 140/4/88 141/4/88 167/4/88 166/4/88
f 150/4/74 127/4/74 153/4/74 176/4/74
f 142/4/89 134/4/89 160/4/89 168/4/89
f 139/4/90 136/4/90 162/4/90 165/4/90
f 141/4/91 137/4/91 163/4/91 167/4/91
f 135/4/92 132/4/92 158/4/92 161/4/92
f 129/4/93 130/4/93 156/4/93 155/4/93
f 144/4/94 142/4/94 168/4/94 170/4/94
f 127/4/95 125/4/95 151/4/95 153/4/95
f 126/4/96 150/4/96 176/4/96 152/4/96
f 150/4/72 126/4/72 125/4/72 127/4/72
