# Blender 4.0.2
# www.blender.org
mtllib room.mtl
o room
v -15.000000 0.000000 25.000000
v -5.000000 0.000000 25.000000
v 5.000001 0.000000 25.000000
v -25.000000 0.000000 15.000000
v -15.000000 0.000000 15.000000
v -5.000000 0.000000 15.000000
v 5.000001 0.000000 15.000000
v 15.000000 0.000000 15.000000
v 25.000000 0.000000 15.000000
v -15.000000 0.000000 5.000000
v -5.000000 0.000000 5.000000
v 5.000001 0.000000 5.000000
v 15.000000 0.000000 5.000000
v -25.000000 0.000000 -5.000001
v -15.000000 0.000000 -5.000001
v -5.000000 0.000000 -5.000001
v 5.000001 0.000000 -5.000001
v 15.000000 0.000000 -5.000001
v 25.000000 0.000000 -5.000001
v -15.000000 0.000000 -15.000000
v -5.000000 0.000000 -15.000000
v 5.000001 0.000000 -15.000000
v 15.000000 0.000000 -15.000000
v -25.000000 0.000000 -25.000000
v -15.000000 0.000000 -25.000000
v 5.000001 0.000000 -25.000000
v 25.000000 0.000000 -25.000000
v -25.000000 30.000000 5.000000
v -25.000000 30.000000 -25.000000
v -15.000000 30.000000 25.000000
v -5.000000 30.000000 25.000000
v 25.000000 30.000000 25.000000
v -15.000000 30.000000 15.000000
v -5.000000 30.000000 15.000000
v 5.000001 30.000000 15.000000
v 15.000000 30.000000 15.000000
v 25.000000 30.000000 15.000000
v -15.000000 30.000000 5.000000
v -5.000000 30.000000 5.000000
v 5.000001 30.000000 5.000000
v 15.000000 30.000000 5.000000
v -15.000000 30.000000 -5.000001
v -5.000000 30.000000 -5.000001
v 5.000001 30.000000 -5.000001
v 15.000000 30.000000 -5.000001
v 25.000000 30.000000 -5.000001
v -15.000000 30.000000 -15.000000
v -5.000000 30.000000 -15.000000
v 5.000001 30.000000 -15.000000
v 15.000000 30.000000 -15.000000
v -15.000000 30.000000 -25.000000
v -25.000000 0.000000 25.000000
v 15.000000 0.000000 25.000000
v 25.000000 0.000000 25.000000
v -25.000000 0.000000 5.000000
v 25.000000 0.000000 5.000000
v -25.000000 0.000000 -15.000000
v 25.000000 0.000000 -15.000000
v -5.000000 0.000000 -25.000000
v 15.000000 0.000000 -25.000000
v 5.000001 30.000000 25.000000
v 15.000000 30.000000 25.000000
v -25.000000 30.000000 15.000000
v 25.000000 30.000000 5.000000
v 15.000000 30.000000 -25.000000
v -25.000000 30.000000 25.000000
v -25.000000 30.000000 -5.000001
v -25.000000 30.000000 -15.000000
v 25.000000 30.000000 -15.000000
v -5.000000 30.000000 -25.000000
v 5.000001 30.000000 -25.000000
v 25.000000 30.000000 -25.000000
v -5.000000 20.000000 -25.000000
v -5.000000 10.000000 -25.000000
v 5.000001 10.000000 -25.000000
v 5.000001 20.000000 -25.000000
v -5.000000 20.000000 25.000000
v -5.000000 10.000000 25.000000
v -15.000000 10.000000 25.000000
v -15.000000 20.000000 25.000000
v -25.000000 20.000000 -15.000000
v -25.000000 10.000000 -15.000000
v -25.000000 10.000000 -25.000000
v -25.000000 20.000000 -25.000000
v -25.000000 20.000000 5.000000
v -25.000000 10.000000 5.000000
v -25.000000 10.000000 -5.000001
v -25.000000 20.000000 -5.000001
v 15.000000 10.000000 -25.000000
v 15.000000 20.000000 -25.000000
v 25.000000 20.000000 25.000000
v 25.000000 10.000000 25.000000
v 15.000000 10.000000 25.000000
v 15.000000 20.000000 25.000000
v 25.000000 20.000000 -25.000000
v 25.000000 10.000000 -25.000000
v 25.000000 10.000000 -15.000000
v 25.000000 20.000000 -15.000000
v 25.000000 20.000000 -5.000001
v 25.000000 10.000000 -5.000001
v 25.000000 10.000000 5.000000
v 25.000000 20.000000 5.000000
v -15.000000 10.000000 -25.000000
v -15.000000 20.000000 -25.000000
v 25.000000 20.000000 15.000000
v 25.000000 10.000000 15.000000
v 5.000001 20.000000 25.000000
v 5.000001 10.000000 25.000000
v -25.000000 20.000000 25.000000
v -25.000000 10.000000 25.000000
v -25.000000 10.000000 15.000000
v -25.000000 20.000000 15.000000
vn -0.0000 1.0000 -0.0000
vn -0.0000 -1.0000 -0.0000
vn -0.0000 -0.0000 1.0000
vn -0.0000 -0.0000 -1.0000
vn 1.0000 -0.0000 -0.0000
vn -1.0000 -0.0000 -0.0000
vt -11.985000 -12.015000
vt -6.985001 -12.015000
vt -6.985001 -7.015000
vt -11.985000 -7.015000
vt -1.985000 -12.015000
vt -1.985000 -7.015000
vt 3.015001 -12.015000
vt 3.015001 -7.015000
vt -1.984999 -7.015000
vt 8.015000 -12.015000
vt 8.015000 -7.015000
vt 13.015000 -12.015000
vt 13.015000 -7.015000
vt -6.985001 -2.015000
vt -11.985000 -2.015000
vt -1.985000 -2.015000
vt 3.015001 -2.015000
vt -1.984999 -2.015000
vt 8.015000 -2.015000
vt 13.015000 -2.015000
vt -11.985000 -2.014999
vt -6.985001 -2.014999
vt -6.985001 2.985000
vt -11.985000 2.985000
vt -1.985000 -2.014999
vt -1.985000 2.985000
vt 3.015001 -2.014999
vt 3.015001 2.985000
vt -1.984999 2.985000
vt 8.015000 -2.014999
vt 8.015000 2.985000
vt 13.015000 -2.014999
vt 13.015000 2.985000
vt -6.985001 7.985000
vt -11.985000 7.985000
vt -1.985000 7.985000
vt 3.015001 7.985000
vt -1.984999 7.985000
vt 8.015000 7.985000
vt 13.015000 7.985000
vt -6.985001 12.985000
vt -11.985000 12.985000
vt -1.985000 12.985000
vt 3.015001 12.985000
vt -1.984999 12.985000
vt 8.015000 12.985000
vt 13.015000 12.985000
vt -5.485001 -5.015002
vt -5.485001 -2.515001
vt -2.984999 -2.515001
vt -2.984999 -5.015002
vt -0.484999 -2.515001
vt -0.484999 -5.015002
vt -0.484999 -2.515001
vt 2.015001 -2.515001
vt 2.015001 -5.015002
vt 4.514999 -2.515001
vt 4.514999 -5.015002
vt 7.014999 -2.515001
vt 7.014999 -5.015002
vt -5.485001 -0.015001
vt -2.984999 -0.015001
vt -0.484999 -0.015001
vt -0.484999 -0.015001
vt 2.015001 -0.015001
vt 4.514999 -0.015001
vt 7.014999 -0.015001
vt -5.485001 -0.015000
vt -5.485001 2.485000
vt -2.984999 2.485000
vt -2.984999 -0.015000
vt -0.484999 2.485000
vt -0.484999 -0.015000
vt -0.484999 2.485000
vt 2.015001 2.485000
vt 2.015001 -0.015000
vt 4.514999 2.485000
vt 4.514999 -0.015000
vt 7.014999 2.485000
vt 7.014999 -0.015000
vt -5.485001 4.984998
vt -2.984999 4.984998
vt -0.484999 4.984998
vt -0.484999 4.984998
vt 2.015001 4.984998
vt 4.514999 4.984998
vt 7.014999 4.984998
vt -5.485001 7.484998
vt -2.984999 7.484998
vt -0.484999 7.484998
vt -0.484999 7.484998
vt 2.015001 7.484998
vt 4.514999 7.484998
vt 7.014999 7.484998
vt -0.484985 0.999985
vt 2.014986 0.999985
vt 2.014986 3.499955
vt -0.484985 3.499955
vt 2.014987 0.999985
vt 4.514957 0.999985
vt 4.514957 3.499955
vt 2.014987 3.499955
vt 4.014957 1.999985
vt 6.514927 1.999985
vt 6.514927 4.499955
vt 4.014957 4.499955
vt -0.984983 1.999985
vt 1.514988 1.999985
vt 1.514988 4.499955
vt -0.984982 4.499955
vt 4.514955 0.999985
vt 4.514955 3.499955
vt -5.484923 0.999986
vt -2.984953 0.999986
vt -2.984953 3.499955
vt -5.484922 3.499955
vt -4.984925 0.999986
vt -2.484955 0.999986
vt -2.484955 3.499956
vt -4.984924 3.499956
vt 0.015015 0.999986
vt 2.514984 0.999986
vt 2.514984 3.499956
vt 0.015015 3.499956
vt -5.484925 0.999986
vt -2.984955 0.999986
vt -2.984955 3.499955
vt -5.484925 3.499955
vt 5.014955 0.999985
vt 7.514925 0.999985
vt 7.514925 3.499955
vt 5.014955 3.499956
vt -0.484983 0.999985
vt -0.484983 3.499955
vt 7.014925 0.999985
vt 7.014925 3.499955
vt -5.984923 1.999986
vt -3.484953 1.999986
vt -3.484953 4.499955
vt -5.984922 4.499955
vt 7.014927 0.999985
vt 7.014927 3.499955
vt 2.514984 -3.999954
vt 5.014955 -3.999954
vt 5.014955 -1.499985
vt 2.514984 -1.499985
vt -2.484955 -3.999954
vt 0.015014 -3.999954
vt 0.015015 -1.499985
vt -2.484955 -1.499984
vt -2.984953 -3.999954
vt -0.484984 -3.999955
vt -0.484983 -1.499984
vt -2.984953 -1.499984
vt -3.484953 -2.999954
vt -0.984983 -2.999955
vt -0.984983 -0.499984
vt -3.484953 -0.499984
vt -2.984956 -3.999954
vt -0.484985 -3.999955
vt -0.484985 -1.499984
vt -2.984955 -1.499984
vt 1.514987 -2.999955
vt 4.014957 -2.999955
vt 4.014957 -0.499985
vt 1.514987 -0.499985
vt 4.514957 -3.999955
vt 7.014926 -3.999955
vt 7.014927 -1.499985
vt 4.514957 -1.499985
vt -5.984922 -2.999954
vt -5.984923 -0.499984
vt 4.514955 -3.999955
vt 7.014924 -3.999955
vt 7.014925 -1.499985
vt 4.514955 -1.499985
vt 2.014987 -3.999955
vt 2.014987 -1.499985
vt 7.514925 -3.999955
vt 7.514925 -1.499985
vt -5.484925 -3.999954
vt -5.484925 -1.499984
vt -4.984924 -3.999954
vt -4.984925 -1.499984
vt -5.484922 -3.999954
vt -5.484923 -1.499984
vt 2.014985 -3.999955
vt 2.014985 -1.499985
vt 6.514926 -2.999955
vt 6.514927 -0.499986
s 0
usemtl grey_tile
f 52/1/1 1/2/1 5/3/1 4/4/1
f 1/2/1 2/5/1 6/6/1 5/3/1
f 2/5/1 3/7/1 7/8/1 6/9/1
f 3/7/1 53/10/1 8/11/1 7/8/1
f 53/10/1 54/12/1 9/13/1 8/11/1
f 4/4/1 5/3/1 10/14/1 55/15/1
f 5/3/1 6/6/1 11/16/1 10/14/1
f 6/6/1 7/8/1 12/17/1 11/18/1
f 7/8/1 8/11/1 13/19/1 12/17/1
f 8/11/1 9/13/1 56/20/1 13/19/1
f 55/21/1 10/22/1 15/23/1 14/24/1
f 10/22/1 11/25/1 16/26/1 15/23/1
f 11/25/1 12/27/1 17/28/1 16/29/1
f 12/27/1 13/30/1 18/31/1 17/28/1
f 13/30/1 56/32/1 19/33/1 18/31/1
f 14/24/1 15/23/1 20/34/1 57/35/1
f 15/23/1 16/26/1 21/36/1 20/34/1
f 16/26/1 17/28/1 22/37/1 21/38/1
f 17/28/1 18/31/1 23/39/1 22/37/1
f 18/31/1 19/33/1 58/40/1 23/39/1
f 57/35/1 20/34/1 25/41/1 24/42/1
f 20/34/1 21/36/1 59/43/1 25/41/1
f 21/36/1 22/37/1 26/44/1 59/45/1
f 22/37/1 23/39/1 60/46/1 26/44/1
f 23/39/1 58/40/1 27/47/1 60/46/1
f 66/48/2 63/49/2 33/50/2 30/51/2
f 30/51/2 33/50/2 34/52/2 31/53/2
f 31/53/2 34/54/2 35/55/2 61/56/2
f 61/56/2 35/55/2 36/57/2 62/58/2
f 62/58/2 36/57/2 37/59/2 32/60/2
f 63/49/2 28/61/2 38/62/2 33/50/2
f 33/50/2 38/62/2 39/63/2 34/52/2
f 34/52/2 39/64/2 40/65/2 35/55/2
f 35/55/2 40/65/2 41/66/2 36/57/2
f 36/57/2 41/66/2 64/67/2 37/59/2
f 28/68/2 67/69/2 42/70/2 38/71/2
f 38/71/2 42/70/2 43/72/2 39/73/2
f 39/73/2 43/74/2 44/75/2 40/76/2
f 40/76/2 44/75/2 45/77/2 41/78/2
f 41/78/2 45/77/2 46/79/2 64/80/2
f 67/69/2 68/81/2 47/82/2 42/70/2
f 42/70/2 47/82/2 48/83/2 43/72/2
f 43/72/2 48/84/2 49/85/2 44/75/2
f 44/75/2 49/85/2 50/86/2 45/77/2
f 45/77/2 50/86/2 69/87/2 46/79/2
f 68/81/2 29/88/2 51/89/2 47/82/2
f 47/82/2 51/89/2 70/90/2 48/83/2
f 48/83/2 70/91/2 71/92/2 49/85/2
f 49/85/2 71/92/2 65/93/2 50/86/2
f 50/86/2 65/93/2 72/94/2 69/87/2
usemtl orange_tile
f 73/95/3 76/96/3 71/97/3 70/98/3
f 77/99/4 80/100/4 30/101/4 31/102/4
f 81/103/5 84/104/5 29/105/5 68/106/5
f 85/107/5 88/108/5 67/109/5 28/110/5
f 76/96/3 90/111/3 65/112/3 71/97/3
f 91/113/4 94/114/4 62/115/4 32/116/4
f 95/117/6 98/118/6 69/119/6 72/120/6
f 99/121/6 102/122/6 64/123/6 46/124/6
f 84/125/3 104/126/3 51/127/3 29/128/3
f 105/129/6 91/130/6 32/131/6 37/132/6
f 107/133/4 77/99/4 31/102/4 61/134/4
f 90/111/3 95/135/3 72/136/3 65/112/3
f 109/137/5 112/138/5 63/139/5 66/140/5
f 80/100/4 109/141/4 66/142/4 30/101/4
f 88/108/5 81/103/5 68/106/5 67/109/5
f 104/126/3 73/95/3 70/98/3 51/127/3
f 112/138/5 85/107/5 28/110/5 63/139/5
f 94/114/4 107/133/4 61/134/4 62/115/4
f 98/118/6 99/121/6 46/124/6 69/119/6
f 102/122/6 105/129/6 37/132/6 64/123/6
f 56/143/6 9/144/6 106/145/6 101/146/6
f 101/146/6 106/145/6 105/129/6 102/122/6
f 58/147/6 19/148/6 100/149/6 97/150/6
f 97/150/6 100/149/6 99/121/6 98/118/6
f 53/151/4 3/152/4 108/153/4 93/154/4
f 93/154/4 108/153/4 107/133/4 94/114/4
f 4/155/5 55/156/5 86/157/5 111/158/5
f 111/158/5 86/157/5 85/107/5 112/138/5
f 25/159/3 59/160/3 74/161/3 103/162/3
f 103/162/3 74/161/3 73/95/3 104/126/3
f 14/163/5 57/164/5 82/165/5 87/166/5
f 87/166/5 82/165/5 81/103/5 88/108/5
f 1/167/4 52/168/4 110/169/4 79/170/4
f 79/170/4 110/169/4 109/141/4 80/100/4
f 52/171/5 4/155/5 111/158/5 110/172/5
f 110/172/5 111/158/5 112/138/5 109/137/5
f 60/173/3 27/174/3 96/175/3 89/176/3
f 89/176/3 96/175/3 95/135/3 90/111/3
f 3/152/4 2/177/4 78/178/4 108/153/4
f 108/153/4 78/178/4 77/99/4 107/133/4
f 9/144/6 54/179/6 92/180/6 106/145/6
f 106/145/6 92/180/6 91/130/6 105/129/6
f 24/181/3 25/159/3 103/162/3 83/182/3
f 83/182/3 103/162/3 104/126/3 84/125/3
f 19/148/6 56/143/6 101/146/6 100/149/6
f 100/149/6 101/146/6 102/122/6 99/121/6
f 27/183/6 58/147/6 97/150/6 96/184/6
f 96/184/6 97/150/6 98/118/6 95/117/6
f 54/185/4 53/151/4 93/154/4 92/186/4
f 92/186/4 93/154/4 94/114/4 91/113/4
f 26/187/3 60/173/3 89/176/3 75/188/3
f 75/188/3 89/176/3 90/111/3 76/96/3
f 55/156/5 14/163/5 87/166/5 86/157/5
f 86/157/5 87/166/5 88/108/5 85/107/5
f 57/164/5 24/189/5 83/190/5 82/165/5
f 82/165/5 83/190/5 84/104/5 81/103/5
f 2/177/4 1/167/4 79/170/4 78/178/4
f 78/178/4 79/170/4 80/100/4 77/99/4
f 59/160/3 26/187/3 75/188/3 74/161/3
f 74/161/3 75/188/3 76/96/3 73/95/3
